<svg xmlns="http://www.w3.org/2000/svg" width="49.393" height="49.393" viewBox="0 0 49.393 49.393"><g transform="translate(43.604 16.014)"><path d="M452.965,166a.965.965,0,1,0,.965.965A.965.965,0,0,0,452.965,166Z" transform="translate(-452 -166)" fill="#fff"/></g><g transform="translate(21.802 8.296)"><path d="M226.965,86a.965.965,0,1,0,.965.965A.965.965,0,0,0,226.965,86Z" transform="translate(-226 -86)" fill="#fff"/></g><g transform="translate(39.746 4.438)"><path d="M416.823,46A4.829,4.829,0,0,0,412,50.823v29.23c0,.019,0,.037,0,.056s0,.019,0,.029a.964.964,0,0,0,.019.123l0,.019a.931.931,0,0,0,.034.11s0,.008,0,.013l3.859,9.936a.965.965,0,0,0,1.8,0l3.859-9.936s0-.008,0-.013a.936.936,0,0,0,.034-.11l0-.019a.954.954,0,0,0,.019-.123c0-.01,0-.019,0-.029s0-.037,0-.056V50.823A4.829,4.829,0,0,0,416.823,46Zm0,41.325-.9-2.3a2.873,2.873,0,0,1,1.79,0Zm1.594-4.106a4.826,4.826,0,0,0-3.189,0l-1.121-2.886a4.5,4.5,0,0,1,5.431,0Zm1.3-5.041a6.433,6.433,0,0,0-5.788,0v-24.8a7.712,7.712,0,0,1,5.788,0Zm0-26.852a9.669,9.669,0,0,0-5.788,0v-.5a2.894,2.894,0,0,1,5.788,0Z" transform="translate(-412 -46)" fill="#fff"/></g><g transform="translate(43.604 19.873)"><path d="M452.965,206a.965.965,0,0,0-.965.965V218.83a.965.965,0,1,0,1.929,0V206.965A.965.965,0,0,0,452.965,206Z" transform="translate(-452 -206)" fill="#fff"/></g><g transform="translate(4.148 4.148)"><path d="M65.477,43H43.965a.965.965,0,0,0-.965.965v29.52a.965.965,0,0,0,.965.965H65.477a.965.965,0,0,0,.965-.965V43.965A.965.965,0,0,0,65.477,43ZM50.042,72.52H44.929V67.407h5.113Zm0-7.042H44.929V59.689h5.113Zm0-7.718H44.929V52.936h5.113ZM57.76,72.52H51.972V67.407H57.76Zm0-7.042H51.972V59.689H57.76Zm0-7.718H51.972V52.936H57.76Zm6.753,14.76H59.689V59.689h4.823Zm0-14.76H59.689V52.936h4.823Zm0-6.753H44.929V44.929H64.513Z" transform="translate(-43 -43)" fill="#fff"/></g><g transform="translate(8.007 8.296)"><path d="M93.9,86H83.965a.965.965,0,0,0,0,1.929H93.9A.965.965,0,1,0,93.9,86Z" transform="translate(-83 -86)" fill="#fff"/></g><path d="M36.942,16.092a.965.965,0,0,0-1.045.188l-4.448,4.236V2.894A2.9,2.9,0,0,0,28.555,0H2.894A2.9,2.9,0,0,0,0,2.894V36.562a2.9,2.9,0,0,0,2.894,2.894h9.874l-8.058,8.3A.965.965,0,0,0,5.4,49.393h31.16a.965.965,0,0,0,.965-.965V16.979A.965.965,0,0,0,36.942,16.092ZM2.894,37.527a.966.966,0,0,1-.965-.965V2.894a.966.966,0,0,1,.965-.965H28.555a.966.966,0,0,1,.965.965V36.562a.966.966,0,0,1-.965.965ZM29.52,39.29v2.1H21.7l1.929-1.929h4.921A2.88,2.88,0,0,0,29.52,39.29ZM35.6,47.463H33.459V46.209a.965.965,0,0,0-1.929,0v1.254H29.52V46.209a.965.965,0,0,0-1.929,0v1.254H25.661V46.209a.965.965,0,1,0-1.929,0v1.254H21.8V46.209a.965.965,0,1,0-1.929,0v1.254H17.943V46.209a.965.965,0,1,0-1.929,0v1.254H14.085V46.209a.965.965,0,0,0-1.929,0v1.254H7.683l7.774-8.007h5.449l-2.212,2.212a.965.965,0,0,0,.682,1.647H30.484a.965.965,0,0,0,.965-.965V23.18L35.6,19.23Z" fill="#fff"/></svg>