<svg xmlns="http://www.w3.org/2000/svg" width="49.393" height="49.393" viewBox="0 0 49.393 49.393"><g transform="translate(0)"><g transform="translate(0 0)"><g transform="translate(23.732 11.576)"><path d="M246.965,120a.965.965,0,1,0,.965.965A.965.965,0,0,0,246.965,120Z" transform="translate(-246 -120)" fill="#fff"/></g><g transform="translate(0 0)"><g transform="translate(23.732 39.456)"><path d="M246.965,409a.965.965,0,1,0,.965.965A.965.965,0,0,0,246.965,409Z" transform="translate(-246 -409)" fill="#fff"/></g><path d="M44.569,3.859H27.59V2.894a2.894,2.894,0,0,0-5.788,0v.965H8.007V.965A.965.965,0,0,0,7.042,0H4.823A4.829,4.829,0,0,0,0,4.823v35.6H0a4.829,4.829,0,0,0,4.823,4.823H41.386v3.184a.965.965,0,0,0,.965.965h2.219A4.631,4.631,0,0,0,48.012,47.8a5.318,5.318,0,0,0,1.38-3.521V8.682A4.829,4.829,0,0,0,44.569,3.859ZM23.732,2.894a.965.965,0,0,1,1.929,0V7.718H23.732Zm-.965,6.753H27.59v2.894a2.9,2.9,0,0,1-2.7,2.887.94.94,0,0,0-.393,0,2.9,2.9,0,0,1-2.7-2.887V9.647ZM30.014,27.59h0L26.035,17.174a4.812,4.812,0,0,0,1.287-.589c1.294,2.551,2.931,6.241,4.881,11Zm2.973,1.929c.919,2.282,1.75,4.41,2.393,6.078h-.348a2.891,2.891,0,0,1-2.524-1.478l-1.757-4.6ZM24.7,25.661a.965.965,0,0,0-.965.965v.965H21.444L24.7,19.075l3.252,8.515H25.661v-.965A.965.965,0,0,0,24.7,25.661ZM17.523,27.59l4.6-10.97a4.8,4.8,0,0,0,1.232.554L19.378,27.59Zm1.118,1.929-1.757,4.6A2.891,2.891,0,0,1,14.361,35.6h-.2l2.55-6.078ZM1.929,4.823A2.9,2.9,0,0,1,4.823,1.929H6.078V35.6H4.823a4.786,4.786,0,0,0-2.894.964ZM47.463,44.28a3.17,3.17,0,0,1-2.894,3.183H43.315V13.506h1.254a4.8,4.8,0,0,0,2.894-.967Zm-2.894-32.7H42.35a.965.965,0,0,0-.965.965V43.315H4.823a2.894,2.894,0,0,1,0-5.788H7.042a.965.965,0,0,0,.965-.965V5.788H21.8V7.718h-.965a.965.965,0,0,0-.965.965v3.859a4.826,4.826,0,0,0,.773,2.617L15.431,27.59H13.12a.965.965,0,1,0,0,1.929h1.5L10.275,39.881a.965.965,0,1,0,1.779.746l1.3-3.1h1.006a4.817,4.817,0,0,0,4.252-2.545.962.962,0,0,0,.051-.112l2.044-5.35h3.025v.965a.965.965,0,1,0,1.929,0V29.52h3.025l2.044,5.35a.968.968,0,0,0,.051.112,4.817,4.817,0,0,0,4.252,2.545H36.12c.515,1.353.824,2.187.828,2.2l.006.016.4,1.015a.965.965,0,1,0,1.8-.7l-.394-1.007c-.038-.1-.441-1.187-1.075-2.845-.624-1.634-1.55-4.028-2.612-6.68H38.2a.965.965,0,0,0,0-1.929H34.288c-2.249-5.528-4.107-9.707-5.535-12.442a4.818,4.818,0,0,0,.767-2.607V8.682a.965.965,0,0,0-.965-.965H27.59V5.788H44.569a2.894,2.894,0,0,1,0,5.788Z" transform="translate(0 0)" fill="#fff"/><g transform="translate(27.59 39.456)"><path d="M292.753,409h-5.788a.965.965,0,1,0,0,1.929h5.788a.965.965,0,0,0,0-1.929Z" transform="translate(-286 -409)" fill="#fff"/></g><g transform="translate(14.085 39.456)"><path d="M152.753,409h-5.788a.965.965,0,1,0,0,1.929h5.788a.965.965,0,1,0,0-1.929Z" transform="translate(-146 -409)" fill="#fff"/></g></g></g></g></svg>