<svg xmlns="http://www.w3.org/2000/svg" width="49.393" height="49.393" viewBox="0 0 49.393 49.393"><g transform="translate(41.386 43.315)"><path d="M429.965,449a.965.965,0,1,0,.965.965A.965.965,0,0,0,429.965,449Z" transform="translate(-429 -449)" fill="#fff"/></g><path d="M48.428,9.936h-.965V.965A.965.965,0,0,0,46.5,0H42.35a.965.965,0,0,0-.965.965V2.6L36.562,5.147,31.739,2.6V.965A.965.965,0,0,0,30.774,0H26.626a.965.965,0,0,0-.965.965V4.148H20.837a.965.965,0,0,0-.965.965v8.972H16.689a.965.965,0,0,0-.965.965v1.474l-4.9,4.031L6.078,16.532V15.049a.965.965,0,0,0-.965-.965H.965A.965.965,0,0,0,0,15.049V48.428a.965.965,0,0,0,.965.965H48.428a.965.965,0,0,0,.965-.965V10.9A.965.965,0,0,0,48.428,9.936Zm-5.113-.651V1.929h2.219V9.936H43.315Zm-1.929-4.5v2.91L38.629,6.238Zm-9.647,0L34.5,6.238,31.739,7.693Zm0,5.091,4.823-2.546,4.823,2.546v.062H31.739Zm1.929,25.433h7.718v3.859H33.668ZM32.7,33.379H27.59V29.52H35.6v3.859Zm.965-5.788V23.732h7.718V27.59H33.668ZM32.7,21.8H27.59V17.943H35.6V21.8Zm.965-5.788V11.866h7.718v4.148H33.668ZM27.59,5.113V1.929h2.219V9.936H27.59ZM21.8,6.078h3.859V9.936H21.8Zm0,5.788h9.936v4.148H21.8Zm0,6.078h3.859V21.8H21.8Zm0,5.788h9.936V27.59H21.8Zm0,5.788h3.859v3.859H21.8Zm0,5.788h9.936v3.859H21.8Zm-4.148-6.752h0V16.98h0v-.965h2.219V39.167H17.654Zm-1.929-9.534v5.683l-3.4-2.883Zm-9.647.038L9.312,21.8,6.078,24.462Zm0,7.9,4.73-3.893,4.917,4.166V28.1l-4.9,4.031L6.078,28.108ZM15.725,30.6v5.683l-3.4-2.883Zm-9.647.038,3.234,2.74L6.078,36.038Zm0,7.9,4.73-3.893,4.917,4.166v.357H6.078ZM1.929,16.014H4.148V26.5h0V38.08h0v1.086H1.929ZM47.463,47.463H1.929V41.1H47.463Zm0-8.3H43.315V35.308h4.148Zm0-5.788H37.527V29.52h9.936Zm0-5.788H43.315V23.732h4.148Zm0-5.788H37.527V17.943h9.936Zm0-5.788H43.315V11.866h4.148Z" fill="#fff"/><g transform="translate(6.078 43.315)"><path d="M95.414,449H63.965a.965.965,0,1,0,0,1.929H95.414a.965.965,0,1,0,0-1.929Z" transform="translate(-63 -449)" fill="#fff"/></g></svg>