<svg xmlns="http://www.w3.org/2000/svg" width="49.218" height="49.218" viewBox="0 0 49.218 49.218"><g transform="translate(26.147 39.605)"><path d="M272.961,412a.961.961,0,1,0,.961.961A.962.962,0,0,0,272.961,412Z" transform="translate(-272 -412)" fill="#fff"/></g><g transform="translate(15.381 39.605)"><path d="M167.883,412h-6.921a.961.961,0,1,0,0,1.923h6.921a.961.961,0,1,0,0-1.923Z" transform="translate(-160 -412)" fill="#fff"/></g><g transform="translate(3.845 35.76)"><path d="M70.954,372H44.806a4.806,4.806,0,1,0,0,9.613H70.954a4.806,4.806,0,1,0,0-9.613Zm-26.147,7.69a2.884,2.884,0,1,1,2.884-2.884A2.887,2.887,0,0,1,44.806,379.69Zm22.3,0H48.649a4.8,4.8,0,0,0,0-5.768H67.111a4.8,4.8,0,0,0,0,5.768Zm3.843,0a2.884,2.884,0,1,1,2.884-2.884A2.887,2.887,0,0,1,70.954,379.69Z" transform="translate(-40 -372)" fill="#fff"/></g><path d="M48.257,29.031a.961.961,0,0,0-.961.961,1.923,1.923,0,1,1-1.923-1.923.961.961,0,0,0,.961-.961V24.225a.961.961,0,0,0,.86-.531l1.923-3.845a.961.961,0,0,0,0-.86l-1.923-3.845a.961.961,0,0,0-.86-.531V3.845a3.844,3.844,0,0,0-7.189-1.894l-9.961,13.7-.153-.305a4.781,4.781,0,0,0-4.3-2.657H10.574a4.811,4.811,0,0,0-4.806,4.8V22.3H4.806a2.887,2.887,0,0,0-2.884,2.884v5.768a2.887,2.887,0,0,0,1.652,2.607,8.768,8.768,0,0,0-1.041.888A8.652,8.652,0,0,0,8.652,49.218H34.8A8.652,8.652,0,0,0,37.538,32.36l-3.059-6.117,9.933-18v6.37a.961.961,0,0,0-.86.531l-1.923,3.845a.961.961,0,0,0,0,.86l1.923,3.845a.961.961,0,0,0,.86.531v2.044a3.845,3.845,0,1,0,4.806,3.723A.961.961,0,0,0,48.257,29.031ZM28.437,18.457l3.845,7.69H19.226v-7.69Zm13.091,22.11A6.729,6.729,0,0,1,34.8,47.3H8.652a6.729,6.729,0,1,1,0-13.458H34.8A6.737,6.737,0,0,1,41.528,40.567Zm-6.362-8.652H4.806a.962.962,0,0,1-.961-.961V25.186a.962.962,0,0,1,.961-.961H6.729a.961.961,0,0,0,.961-.961v-5.77a2.886,2.886,0,0,1,2.884-2.882H24.732a2.869,2.869,0,0,1,2.58,1.594l.164.329H12.5a.961.961,0,0,0-.961.961v9.613a.961.961,0,0,0,.961.961H33.243ZM17.3,18.457v7.69H13.458v-7.69Zm16.132,5.7-3.283-6.567L38.989,5.434a3.85,3.85,0,0,0,3.5,2.256h.032ZM44.321,4.426l-.361.656a1.921,1.921,0,0,1-3.189-2.1l.361-.5.005-.008a1.921,1.921,0,0,1,3.184,1.946Zm-.757,14.992,1.442-2.884h.734l1.442,2.884L45.74,22.3h-.734Z" fill="#fff"/></svg>