<svg xmlns="http://www.w3.org/2000/svg" width="49.402" height="49.403" viewBox="0 0 49.402 49.403"><g transform="translate(-0.001)"><g transform="translate(31.746 29.815)"><path d="M329.966,309a.965.965,0,1,0,.965.965A.965.965,0,0,0,329.966,309Z" transform="translate(-329.001 -309)" fill="#fff"/></g><g transform="translate(13.799 43.613)"><path d="M143.966,452a.965.965,0,1,0,.965.965A.965.965,0,0,0,143.966,452Z" transform="translate(-143.001 -452)" fill="#fff"/></g><g transform="translate(0.001)"><g transform="translate(0)"><path d="M42.649,0a.965.965,0,0,0-.965.965V3.86H37.535V.965A.965.965,0,0,0,35.884.286L32.351,3.86H7.72V.965A.965.965,0,0,0,6.755,0,6.762,6.762,0,0,0,0,6.754V30.78a5.012,5.012,0,0,0,.066.8A4.978,4.978,0,0,0,5.032,35.6H44.579A4.83,4.83,0,0,0,49.4,30.78V6.754A6.762,6.762,0,0,0,42.649,0ZM35.605,3.313V25.956h-3.86v-.965a.965.965,0,0,0-1.93,0v.965H25.378v-.965a.965.965,0,1,0-1.93,0v.965h-3.86v-.965a.965.965,0,1,0-1.93,0v.965H13.215ZM1.931,6.754A4.833,4.833,0,0,1,5.79,2.027V25.956H4.825a4.8,4.8,0,0,0-2.895.967Zm42.648,26.92H5.032a3.035,3.035,0,0,1-3.061-2.4,3.074,3.074,0,0,1-.041-.493,2.9,2.9,0,0,1,2.895-2.895h1.93a.965.965,0,0,0,.965-.965V5.789H30.443L10.218,26.242a.965.965,0,0,0,.686,1.643H36.57a.965.965,0,0,0,.965-.965V5.789h4.149V26.92a.965.965,0,0,0,.965.965h1.723a3.035,3.035,0,0,1,3.061,2.4,3.074,3.074,0,0,1,.041.493A2.9,2.9,0,0,1,44.579,33.675Zm2.895-6.695a5.2,5.2,0,0,0-3.1-1.024h-.758V2.027a4.833,4.833,0,0,1,3.86,4.727Z" transform="translate(-0.001)" fill="#fff"/></g></g><g transform="translate(23.916 14.266)"><path d="M255.086,147.924a.966.966,0,0,0-1.052.209l-5.9,5.9a.965.965,0,0,0,.682,1.647h5.9a.965.965,0,0,0,.965-.965v-5.9A.965.965,0,0,0,255.086,147.924Zm-1.334,5.827h-2.606l2.606-2.606Z" transform="translate(-247.851 -147.851)" fill="#fff"/></g><g transform="translate(0.001 39.753)"><g transform="translate(0)"><path d="M48.788,415.925l-5.263-2.044h0l-4.676-1.816-.012,0a.963.963,0,0,0-.111-.034l-.019,0a.969.969,0,0,0-.123-.019l-.03,0-.055,0H4.825a4.824,4.824,0,0,0,0,9.649H38.5c.031,0,.062,0,.093,0l.04-.006.05-.008.05-.012.038-.01.054-.018.024-.008,9.938-3.859a.965.965,0,0,0,0-1.8ZM7.259,419.719H4.825a2.895,2.895,0,0,1,0-5.789H7.259A9.671,9.671,0,0,0,7.259,419.719Zm29.366,0H9.308a7.714,7.714,0,0,1,0-5.789H36.624a6.435,6.435,0,0,0,0,5.789Zm5.256-1.383-3.1,1.2a4.5,4.5,0,0,1,0-5.432l3.1,1.2a5.932,5.932,0,0,0,0,3.024Zm1.807-.7a4.547,4.547,0,0,1,0-1.62l2.086.81Z" transform="translate(-0.001 -412)" fill="#fff"/></g></g><g transform="translate(17.658 43.613)"><path d="M198.053,452H183.966a.965.965,0,1,0,0,1.93h14.087a.965.965,0,1,0,0-1.93Z" transform="translate(-183.001 -452)" fill="#fff"/></g><g transform="translate(13.799 29.815)"><path d="M158.053,309H143.966a.965.965,0,1,0,0,1.93h14.087a.965.965,0,1,0,0-1.93Z" transform="translate(-143.001 -309)" fill="#fff"/></g></g></svg>