<svg xmlns="http://www.w3.org/2000/svg" width="40.374" height="49.218" viewBox="0 0 40.374 49.218"><g transform="translate(-3785 -784)"><g transform="translate(3785 784)"><g transform="translate(28.839 41.24)"><path d="M346.961,429a.961.961,0,1,0,.961.961A.962.962,0,0,0,346.961,429Z" transform="translate(-346 -429)" fill="#fff"/></g><g transform="translate(9.613 41.24)"><path d="M146.961,429a.961.961,0,1,0,.961.961A.962.962,0,0,0,146.961,429Z" transform="translate(-146 -429)" fill="#fff"/></g><path d="M84.61,36.261A10.863,10.863,0,0,0,80.3,32.4a.956.956,0,0,0-.546-.251,10.056,10.056,0,0,0-3.953-.806H72.916V28.8a11.027,11.027,0,0,0,3.45-5.443h.395a3.843,3.843,0,0,0,2.824-6.451c.06-.051.119-.1.176-.161a2.883,2.883,0,0,0-1.111-4.769A10.611,10.611,0,0,0,70.938,2.6,3.059,3.059,0,0,0,68.11,0H64.265a3.059,3.059,0,0,0-2.828,2.6,10.611,10.611,0,0,0-7.713,9.381,2.882,2.882,0,0,0-.934,4.931,3.843,3.843,0,0,0,2.823,6.452H56A11.05,11.05,0,0,0,58.7,28.082c.241.252.5.491.762.719v2.537H56.574a10.057,10.057,0,0,0-3.953.806.957.957,0,0,0-.546.251A11.014,11.014,0,0,0,46,42.2v6.056a.961.961,0,0,0,.961.961H85.413a.961.961,0,0,0,.961-.961V42.2A10.929,10.929,0,0,0,84.61,36.261ZM51.768,47.3H47.923V42.2a9.183,9.183,0,0,1,3.845-7.39ZM76.761,21.437h-.044c.029-.32.044-.641.044-.961V17.592a1.923,1.923,0,1,1,0,3.845ZM61.381,4.628V8.94a.961.961,0,1,0,1.923,0V3.172c0-.6.5-1.25.961-1.25H68.11c.458,0,.961.654.961,1.25V8.94a.961.961,0,0,0,1.923,0V4.628a8.69,8.69,0,0,1,5.714,7.2H55.667A8.69,8.69,0,0,1,61.381,4.628ZM55.613,21.437a1.923,1.923,0,0,1,0-3.845v2.884c0,.32.015.642.044.961Zm0-5.768h-.961a.961.961,0,0,1,0-1.923H77.723a.961.961,0,0,1,0,1.923H55.613Zm2.1,6.554c0-.01,0-.021-.006-.031a8.866,8.866,0,0,1-.169-1.717V17.592h17.3v2.884a8.869,8.869,0,0,1-.169,1.716c0,.01,0,.021-.006.031a9.106,9.106,0,0,1-3.35,5.406,8.253,8.253,0,0,1-10.256,0,8.908,8.908,0,0,1-.975-.877A9.116,9.116,0,0,1,57.71,22.223ZM65.226,47.3h-7.69V45.085a.961.961,0,0,0-1.923,0V47.3H53.69V33.787a8.137,8.137,0,0,1,1.923-.469v6a.961.961,0,1,0,1.923,0V33.261h2.472l5.218,5.479ZM61.381,31.915V30.124a10.124,10.124,0,0,0,9.613,0v1.79l-4.806,5.047ZM78.684,47.3H76.761V45.085a.961.961,0,0,0-1.923,0V47.3h-7.69V38.74l5.218-5.479h2.472v6.056a.961.961,0,1,0,1.923,0v-6a8.138,8.138,0,0,1,1.923.469Zm5.768,0H80.607V34.81a9.183,9.183,0,0,1,3.845,7.39Z" transform="translate(-46)" fill="#fff"/></g></g></svg>