<svg xmlns="http://www.w3.org/2000/svg" width="23.941" height="23.935" viewBox="0 0 23.941 23.935"><g transform="translate(-1053.208 -357.337)"><path d="M1058.726,359.191c0-.348-.006-.617,0-.885a.934.934,0,1,1,1.866-.01c.008.278,0,.556,0,.856h9.167c0-.258,0-.513,0-.768a.942.942,0,1,1,1.872-.01c0,.248,0,.5,0,.8h.787a4.559,4.559,0,0,1,3.778,1.832,4.355,4.355,0,0,1,.94,2.717c.007,4.331.014,8.661,0,12.992a4.584,4.584,0,0,1-4.53,4.543q-7.429.025-14.859,0a4.594,4.594,0,0,1-4.533-4.542q-.022-6.5,0-12.992a4.6,4.6,0,0,1,4.313-4.532C1057.911,359.172,1058.294,359.191,1058.726,359.191Zm-3.641,7.39v.313q0,4.831,0,9.661a2.749,2.749,0,0,0,2.831,2.839q7.291.007,14.582,0a2.751,2.751,0,0,0,2.776-2.8q0-4.83,0-9.661v-.352Zm.02-1.914h20.146c.326-2.832-1.694-3.919-3.619-3.559,0,.108,0,.22,0,.333,0,.478.012.956,0,1.433a.933.933,0,0,1-1.865,0c-.012-.353,0-.706,0-1.059,0-.245,0-.489,0-.741H1060.6c0,.137,0,.249,0,.361,0,.478.006.956-.008,1.433a.922.922,0,0,1-.928.934.933.933,0,0,1-.939-.956c-.007-.3,0-.6,0-.9s0-.573,0-.852C1056.532,360.764,1054.8,362.057,1055.106,364.666Z" fill="red"/><path d="M1217.329,637.749c.3,0,.6-.01.9,0a.933.933,0,0,1,0,1.866q-.933.021-1.866,0a.932.932,0,0,1,0-1.863c.321-.013.643,0,.964,0Z" transform="translate(-152.132 -262.934)" fill="red"/><path d="M1306.024,639.592c-.311,0-.622.012-.932,0a.931.931,0,0,1,.01-1.861q.932-.024,1.865,0a.913.913,0,0,1,.921.935.928.928,0,0,1-.931.928C1306.646,639.6,1306.335,639.592,1306.024,639.592Z" transform="translate(-235.34 -262.909)" fill="red"/><path d="M1306,549.293c.3,0,.6-.007.9,0a.934.934,0,1,1,0,1.868c-.611.011-1.224.011-1.835,0a.934.934,0,1,1,.027-1.867c.3-.006.6,0,.9,0Z" transform="translate(-235.296 -179.992)" fill="red"/><path d="M1128.923,549.295c.311,0,.622-.008.932,0a.929.929,0,0,1,.917.911.915.915,0,0,1-.875.949c-.642.023-1.285.022-1.927,0a.932.932,0,0,1,.021-1.863C1128.3,549.286,1128.612,549.3,1128.923,549.295Z" transform="translate(-69.259 -179.994)" fill="red"/><path d="M1217.348,551.122c-.311,0-.622.009-.932,0a.932.932,0,0,1,0-1.864c.621-.012,1.243-.013,1.864,0a.932.932,0,0,1,0,1.863C1217.969,551.133,1217.658,551.122,1217.348,551.122Z" transform="translate(-152.165 -179.953)" fill="red"/><path d="M1128.912,639.6c-.29,0-.58.006-.87,0a.933.933,0,1,1-.019-1.866q.9-.018,1.8,0a.933.933,0,1,1-.012,1.866C1129.513,639.61,1129.213,639.6,1128.912,639.6Z" transform="translate(-69.265 -262.92)" fill="red"/></g></svg>