<svg xmlns="http://www.w3.org/2000/svg" width="25.884" height="21.904" viewBox="0 0 25.884 21.904"><g transform="translate(0 -39.356)"><g transform="translate(0 39.356)"><path d="M22.694,43.345H14.5a1.238,1.238,0,0,1-.882-.369l-2.556-2.693a3.24,3.24,0,0,0-2.307-.927H3.189A3.193,3.193,0,0,0,0,42.545V58.071A3.193,3.193,0,0,0,3.189,61.26h19.52a3.192,3.192,0,0,0,3.174-3.2V46.534A3.193,3.193,0,0,0,22.694,43.345Zm1.239,14.721A1.24,1.24,0,0,1,22.7,59.31H3.189a1.24,1.24,0,0,1-1.239-1.239V42.545a1.242,1.242,0,0,1,1.239-1.24H8.815a1.231,1.231,0,0,1,.854.34l2.543,2.68a3.2,3.2,0,0,0,2.29.969h8.192a1.24,1.24,0,0,1,1.239,1.239V58.065Z" transform="translate(0 -39.356)" fill="red"/></g></g></svg>