<svg xmlns="http://www.w3.org/2000/svg" width="21.226" height="30.202" viewBox="0 0 21.226 30.202"><g transform="translate(430.125 -293.358)"><path d="M-420,293.358a10.756,10.756,0,0,1,11.042,9.505,13.329,13.329,0,0,1-1.141,6.509,39.94,39.94,0,0,1-4.339,7.592c-1.416,2.047-2.853,4.079-4.284,6.115a.879.879,0,0,1-1.534.059c-2.132-3.1-4.294-6.172-6.359-9.312A23.614,23.614,0,0,1-429.7,307.1a10.685,10.685,0,0,1,5.381-12.59A10.016,10.016,0,0,1-420,293.358Zm.435,27.754c.115-.134.16-.178.2-.229,1.563-2.247,3.155-4.475,4.678-6.749a27.165,27.165,0,0,0,3.451-6.812,9.2,9.2,0,0,0-.142-6.793,8.471,8.471,0,0,0-7.534-5.352,8.451,8.451,0,0,0-8.266,4.421,9.1,9.1,0,0,0-.569,7.854,25.057,25.057,0,0,0,2.939,5.933C-423.11,315.962-421.344,318.5-419.565,321.112Z" fill="red"/><path d="M-357.37,360.862a5.31,5.31,0,0,1,5.3,5.342,5.312,5.312,0,0,1-5.374,5.271,5.308,5.308,0,0,1-5.243-5.4A5.319,5.319,0,0,1-357.37,360.862Zm.008,1.771a3.55,3.55,0,0,0-3.551,3.511,3.556,3.556,0,0,0,3.5,3.562,3.56,3.56,0,0,0,3.573-3.533A3.553,3.553,0,0,0-357.362,362.632Z" transform="translate(-62.139 -62.196)" fill="red"/></g></svg>