<svg xmlns="http://www.w3.org/2000/svg" width="20" height="22.977" viewBox="0 0 20 22.977"><g transform="translate(-631.417 -397.731)"><path d="M638.666,409.089a6.021,6.021,0,1,1,5.526-.007c.405.158.8.284,1.163.456a9.853,9.853,0,0,1,6.051,9.012c.018.346.008.694,0,1.04a1.009,1.009,0,0,1-1.11,1.112c-1.4.006-2.8,0-4.2,0l-13.152,0c-1.275,0-1.5-.247-1.525-1.539A10.051,10.051,0,0,1,634.024,412a9.831,9.831,0,0,1,4.239-2.764C638.38,409.194,638.5,409.15,638.666,409.089Zm10.753,9.593a7.783,7.783,0,0,0-3.791-6.749,7.619,7.619,0,0,0-8.5.049,7.8,7.8,0,0,0-3.718,6.7Zm-12-14.974a3.994,3.994,0,1,0,4.013-3.986A4.007,4.007,0,0,0,637.423,403.709Z" transform="translate(0 0)" fill="red"/></g></svg>