<svg xmlns="http://www.w3.org/2000/svg" width="28.534" height="28.539" viewBox="0 0 28.534 28.539"><g transform="translate(-180.543 -460.176)"><path d="M194.826,460.176a14.269,14.269,0,1,1-14.283,14.214A14.286,14.286,0,0,1,194.826,460.176Zm12.35,14.289a12.365,12.365,0,1,0-12.4,12.349A12.354,12.354,0,0,0,207.176,474.465Z" fill="red"/><path d="M320.837,549.263a1.033,1.033,0,0,1-.981,1.123,1,1,0,0,1-1.063-.992,1.183,1.183,0,0,0-.8-1.061,3.145,3.145,0,0,0-2.454-.02,1.159,1.159,0,0,0-.837.987,1.309,1.309,0,0,0,.614,1.4c.615.318,1.279.541,1.916.82a13.981,13.981,0,0,1,2.042.949,3.413,3.413,0,0,1,1.535,3.438,3.11,3.11,0,0,1-2.307,2.643c-.715.262-.72.259-.736,1.019a1.02,1.02,0,0,1-.573.973.968.968,0,0,1-1.05-.085,1.093,1.093,0,0,1-.436-.97c0-.69-.005-.69-.65-.91a3.189,3.189,0,0,1-2.417-3.013,1.025,1.025,0,0,1,1.1-1.084.966.966,0,0,1,.936.935,1.255,1.255,0,0,0,.936,1.191,3.21,3.21,0,0,0,2.22.009,1.217,1.217,0,0,0,.939-1,1.332,1.332,0,0,0-.654-1.464c-.619-.313-1.286-.528-1.922-.808a13.19,13.19,0,0,1-2.035-.961A3.4,3.4,0,0,1,312.668,549a3.1,3.1,0,0,1,2.324-2.672c.7-.249.7-.245.719-.992a1.025,1.025,0,0,1,1.5-.982,1.036,1.036,0,0,1,.557.985c.011.742.016.742.721.993A3.15,3.15,0,0,1,320.837,549.263Z" transform="translate(-121.926 -77.992)" fill="red"/></g></svg>