<svg xmlns="http://www.w3.org/2000/svg" width="70" height="70" viewBox="0 0 70 70"><g transform="translate(-716 -1976)"><g transform="translate(322 4)"><rect width="70" height="70" transform="translate(394 1972)" fill="#fff"/></g><g transform="translate(723.951 1985)"><path d="M40.049,27H33.516a.817.817,0,0,0-.817.817v.817a.817.817,0,0,1-.817.817h-4.9a.817.817,0,0,1-.817-.817v-.817A.817.817,0,0,0,25.35,27H18.817a.817.817,0,1,0,0,1.633h5.716a2.45,2.45,0,0,0,2.45,2.45h4.9a2.45,2.45,0,0,0,2.45-2.45h5.716a.817.817,0,1,0,0-1.633Z" transform="translate(-2.384 -4.584)" fill="red"/><path d="M45.8,21.681A18.679,18.679,0,0,0,31.932,4.292,2.445,2.445,0,0,0,29.5,2H24.6a2.445,2.445,0,0,0-2.434,2.3A18.637,18.637,0,0,0,8.3,21.681a4.087,4.087,0,0,0-3.3,4v1.633a2.45,2.45,0,0,0,1.633,2.3v.967a4.088,4.088,0,0,0,3.3,4,17.126,17.126,0,0,0,34.223,0,4.088,4.088,0,0,0,3.3-4v-.967a2.45,2.45,0,0,0,1.633-2.3V25.682A4.087,4.087,0,0,0,45.8,21.681Zm-37.529,8.9v-.817H9.9v3.127a2.455,2.455,0,0,1-1.633-2.31ZM27.049,49.364A15.533,15.533,0,0,1,11.533,33.848V29.765H23.782v4.9a3.224,3.224,0,0,0,.088.726,7.413,7.413,0,0,0-2.024,1.426,7.335,7.335,0,0,0-2.148,5.2.817.817,0,0,0,.817.817H33.582a.817.817,0,0,0,.817-.817,7.308,7.308,0,0,0-4.171-6.624,3.224,3.224,0,0,0,.088-.726v-4.9H42.565v4.083A15.533,15.533,0,0,1,27.049,49.364Zm0-11.433a3.245,3.245,0,0,0,2.418-1.09,5.65,5.65,0,0,1,3.24,4.357H21.39A5.716,5.716,0,0,1,23,37.973a5.781,5.781,0,0,1,1.633-1.132,3.243,3.243,0,0,0,2.416,1.09Zm1.633-3.266a1.633,1.633,0,0,1-3.266,0v-4.9h3.266Zm17.149-4.083a2.455,2.455,0,0,1-1.633,2.31V29.765h1.633Zm1.633-3.266a.817.817,0,0,1-.817.817H7.45a.817.817,0,0,1-.817-.817V25.682a2.45,2.45,0,0,1,1.633-2.3v2.3a.817.817,0,1,0,1.633,0V22.416A17.031,17.031,0,0,1,22.149,6V16.7a.817.817,0,0,0,1.633,0V4.45a.817.817,0,0,1,.817-.817h4.9a.817.817,0,0,1,.817.817V16.7a.817.817,0,1,0,1.633,0V5.985A17.119,17.119,0,0,1,44.2,22.416v3.266a.817.817,0,1,0,1.633,0v-2.3a2.45,2.45,0,0,1,1.633,2.3Z" transform="translate(0 0)" fill="red"/><path d="M40.817,16.533a.817.817,0,0,0,.817-.817v-4.9a.817.817,0,1,0-1.633,0v4.9A.817.817,0,0,0,40.817,16.533Z" transform="translate(-6.418 -1.467)" fill="red"/><path d="M22.817,16.533a.817.817,0,0,0,.817-.817v-4.9a.817.817,0,1,0-1.633,0v4.9A.817.817,0,0,0,22.817,16.533Z" transform="translate(-3.117 -1.467)" fill="red"/><path d="M49.633,27h-.817a.817.817,0,0,0,0,1.633h.817a.817.817,0,1,0,0-1.633Z" transform="translate(-7.885 -4.584)" fill="red"/><path d="M14.633,27h-.817a.817.817,0,0,0,0,1.633h.817a.817.817,0,0,0,0-1.633Z" transform="translate(-1.467 -4.584)" fill="red"/><circle cx="1.5" cy="1.5" r="1.5" transform="translate(33 30)" fill="red"/><circle cx="1.5" cy="1.5" r="1.5" transform="translate(18 30)" fill="red"/></g></g></svg>