<svg xmlns="http://www.w3.org/2000/svg" width="70" height="70" viewBox="0 0 70 70"><g transform="translate(-394 -1972)"><rect width="70" height="70" transform="translate(394 1972)" fill="#fff"/><g transform="translate(404.996 1982.769)"><path d="M55.606,49.076a2.432,2.432,0,0,0,.969-2.612l-5.3-19.78a5.639,5.639,0,0,0-1.438-7.817V16.231a3.231,3.231,0,0,0-6.462,0v2.636a5.639,5.639,0,0,0-1.438,7.817l-5.3,19.783a2.423,2.423,0,0,0,.974,2.607l-.666,2.486a.808.808,0,0,0,.571.989.82.82,0,0,0,.209.027.808.808,0,0,0,.779-.6l.667-2.49a2.365,2.365,0,0,0,2.144-1.777l2.66-9.915a14.478,14.478,0,0,0,1.827.219v.831a.808.808,0,0,0,1.615,0v-.831a14.479,14.479,0,0,0,1.827-.217L51.9,47.71a2.361,2.361,0,0,0,2.145,1.777l.667,2.491a.808.808,0,0,0,.78.6.819.819,0,0,0,.21-.027.808.808,0,0,0,.571-.989ZM44.992,16.231a1.615,1.615,0,0,1,3.231,0v1.858a5.6,5.6,0,0,0-3.231,0Zm1.615,3.231A4.038,4.038,0,1,1,42.569,23.5,4.038,4.038,0,0,1,46.607,19.462ZM39.752,47.3a.793.793,0,0,1-.37.485.808.808,0,0,1-.607.086h-.007a.815.815,0,0,1-.571-.986L43.249,28.04a5.654,5.654,0,0,0,1.46.781Zm7.663-10.926v-.759a.808.808,0,0,0-1.615,0v.759a12.85,12.85,0,0,1-1.4-.162l1.9-7.074c.1.006.207.016.313.016s.208-.011.313-.016l1.9,7.074A12.849,12.849,0,0,1,47.415,36.375ZM53.46,47.3,48.506,28.819a5.654,5.654,0,0,0,1.46-.781l5.051,18.841a.816.816,0,0,1-.565.989h-.011a.808.808,0,0,1-.981-.576Z" transform="translate(-8.645 -4.115)" fill="red"/><path d="M48.423,27.846A2.423,2.423,0,1,0,46,25.423,2.423,2.423,0,0,0,48.423,27.846Zm0-3.231a.808.808,0,1,1-.808.808A.808.808,0,0,1,48.423,24.615Z" transform="translate(-10.462 -6.038)" fill="red"/><path d="M31.077,6.038A4.043,4.043,0,0,0,27.038,2h-21A4.043,4.043,0,0,0,2,6.038V36.731a4.043,4.043,0,0,0,4.038,4.038h21a4.043,4.043,0,0,0,4.038-4.038ZM29.462,36.731a2.423,2.423,0,0,1-2.423,2.423h-21a2.423,2.423,0,0,1-2.423-2.423V6.038A2.423,2.423,0,0,1,6.038,3.615h21a2.423,2.423,0,0,1,2.423,2.423Z" transform="translate(-2 -2)" fill="red"/><path d="M6.808,14.077h21a.808.808,0,0,0,.808-.808V6.808A.808.808,0,0,0,27.808,6h-21A.808.808,0,0,0,6,6.808v6.462A.808.808,0,0,0,6.808,14.077Zm.808-6.462H27v4.846H7.615Z" transform="translate(-2.769 -2.769)" fill="red"/><path d="M13.038,23.615h-.808v-.808a.808.808,0,1,0-1.615,0v.808H9.808a.808.808,0,1,0,0,1.615h.808v.808a.808.808,0,0,0,1.615,0v-.808h.808a.808.808,0,1,0,0-1.615Z" transform="translate(-3.346 -5.846)" fill="red"/><path d="M29.038,24H25.808a.808.808,0,0,0,0,1.615h3.231a.808.808,0,0,0,0-1.615Z" transform="translate(-6.423 -6.231)" fill="red"/><path d="M13.249,37.823a.808.808,0,0,0-1.142,0l-.571.571-.571-.571a.808.808,0,1,0-1.142,1.142l.571.571-.571.571a.808.808,0,1,0,1.142,1.142l.571-.571.571.571a.808.808,0,1,0,1.142-1.142l-.571-.571.571-.571a.808.808,0,0,0,0-1.142Z" transform="translate(-3.459 -8.844)" fill="red"/><path d="M29.038,37H25.808a.808.808,0,1,0,0,1.615h3.231a.808.808,0,1,0,0-1.615Z" transform="translate(-6.423 -8.731)" fill="red"/><path d="M29.038,41H25.808a.808.808,0,1,0,0,1.615h3.231a.808.808,0,1,0,0-1.615Z" transform="translate(-6.423 -9.5)" fill="red"/><path d="M10.654,18a5.654,5.654,0,1,0,5.654,5.654A5.654,5.654,0,0,0,10.654,18Zm0,9.692a4.038,4.038,0,1,1,4.038-4.038,4.038,4.038,0,0,1-4.038,4.038Z" transform="translate(-2.577 -5.077)" fill="red"/><path d="M26.654,18a5.654,5.654,0,1,0,5.654,5.654A5.654,5.654,0,0,0,26.654,18Zm0,9.692a4.038,4.038,0,1,1,4.038-4.038,4.038,4.038,0,0,1-4.038,4.038Z" transform="translate(-5.654 -5.077)" fill="red"/><path d="M10.654,33a5.654,5.654,0,1,0,5.654,5.654A5.654,5.654,0,0,0,10.654,33Zm0,9.692a4.038,4.038,0,1,1,4.038-4.038,4.038,4.038,0,0,1-4.038,4.038Z" transform="translate(-2.577 -7.962)" fill="red"/><path d="M26.654,33a5.654,5.654,0,1,0,5.654,5.654A5.654,5.654,0,0,0,26.654,33Zm0,9.692a4.038,4.038,0,1,1,4.038-4.038,4.038,4.038,0,0,1-4.038,4.038Z" transform="translate(-5.654 -7.962)" fill="red"/></g></g></svg>