<svg xmlns="http://www.w3.org/2000/svg" width="70" height="70" viewBox="0 0 70 70"><g transform="translate(-1025 -1976)"><g transform="translate(631 4)"><rect width="70" height="70" transform="translate(394 1972)" fill="#fff"/></g><g transform="translate(1033 1984)"><path d="M39.833,27.333H36.907a7.084,7.084,0,0,0-.3-.732l2.07-2.07a.833.833,0,0,0,0-1.178l-2.358-2.358a.833.833,0,0,0-1.178,0l-2.07,2.069a7.475,7.475,0,0,0-.732-.3V19.833A.833.833,0,0,0,31.5,19H28.167a.833.833,0,0,0-.833.833v2.926a7.474,7.474,0,0,0-.733.3l-2.07-2.069a.833.833,0,0,0-1.178,0l-2.358,2.358a.833.833,0,0,0,0,1.178l2.069,2.07a7.475,7.475,0,0,0-.3.732H19.833a.833.833,0,0,0-.833.833V31.5a.833.833,0,0,0,.833.833h2.926a7.473,7.473,0,0,0,.3.732l-2.069,2.07a.833.833,0,0,0,0,1.178l2.358,2.358a.833.833,0,0,0,1.178,0L26.6,36.6a7.473,7.473,0,0,0,.733.3v2.926a.833.833,0,0,0,.833.833H31.5a.833.833,0,0,0,.833-.833V36.907a7.474,7.474,0,0,0,.733-.3l2.07,2.069a.833.833,0,0,0,1.178,0l2.358-2.358a.833.833,0,0,0,0-1.178l-2.07-2.07a7.085,7.085,0,0,0,.3-.732h2.927a.833.833,0,0,0,.833-.833V28.167A.833.833,0,0,0,39.833,27.333ZM39,30.667H36.292a.833.833,0,0,0-.807.623,5.642,5.642,0,0,1-.624,1.5.833.833,0,0,0,.125,1.02L36.9,35.727,35.725,36.9l-1.917-1.917a.833.833,0,0,0-1.02-.124,5.647,5.647,0,0,1-1.5.623.833.833,0,0,0-.622.8V39H29V36.292a.833.833,0,0,0-.623-.807,5.613,5.613,0,0,1-1.5-.623.833.833,0,0,0-1.02.124L23.944,36.9l-1.183-1.177,1.917-1.917a.833.833,0,0,0,.124-1.02,5.613,5.613,0,0,1-.623-1.5.833.833,0,0,0-.8-.622H20.667V29h2.708a.833.833,0,0,0,.807-.623,5.613,5.613,0,0,1,.623-1.5.833.833,0,0,0-.124-1.02l-1.917-1.917,1.18-1.18,1.917,1.917a.833.833,0,0,0,1.02.124,5.613,5.613,0,0,1,1.5-.623A.833.833,0,0,0,29,23.375V20.667h1.667v2.708a.833.833,0,0,0,.623.807,5.648,5.648,0,0,1,1.5.623.833.833,0,0,0,1.02-.124l1.917-1.917,1.18,1.18L34.99,25.861a.833.833,0,0,0-.125,1.02,5.642,5.642,0,0,1,.624,1.5.833.833,0,0,0,.8.623H39Z" transform="translate(-2.833 -2.833)" fill="red"/><path d="M31.167,27a4.167,4.167,0,1,0,4.167,4.167A4.167,4.167,0,0,0,31.167,27Zm0,6.667a2.5,2.5,0,1,1,2.5-2.5A2.5,2.5,0,0,1,31.167,33.667Z" transform="translate(-4.167 -4.167)" fill="red"/><path d="M27,2A25,25,0,1,0,52,27,25,25,0,0,0,27,2Zm-.833,48.3c-4.333-.372-8.189-3.623-10.777-8.542a34.944,34.944,0,0,0,10.778,1.9Zm1.667-6.643a34.944,34.944,0,0,0,10.777-1.9c-2.588,4.917-6.44,8.171-10.777,8.543Zm0-1.667V40.333a.833.833,0,0,0-1.667,0v1.653a32.888,32.888,0,0,1-11.777-2.376,32.888,32.888,0,0,1-2.376-11.777h1.653a.833.833,0,0,0,0-1.667H12.013a32.888,32.888,0,0,1,2.376-11.778,32.889,32.889,0,0,1,11.777-2.376v1.653a.833.833,0,0,0,1.667,0V12.013a32.888,32.888,0,0,1,11.778,2.376,32.888,32.888,0,0,1,2.376,11.777H40.333a.833.833,0,0,0,0,1.667h1.653a32.888,32.888,0,0,1-2.376,11.777,32.888,32.888,0,0,1-11.777,2.376ZM3.7,26.167c.372-4.333,3.622-8.189,8.542-10.777a34.944,34.944,0,0,0-1.9,10.777Zm6.643,1.667a34.944,34.944,0,0,0,1.9,10.778C7.327,36.022,4.076,32.171,3.7,27.833ZM27.833,3.7c4.333.372,8.189,3.622,10.777,8.542a34.944,34.944,0,0,0-10.777-1.9Zm-1.667,6.643a34.944,34.944,0,0,0-10.777,1.9C17.977,7.327,21.833,4.076,26.167,3.7ZM43.652,26.167a34.944,34.944,0,0,0-1.9-10.777c4.923,2.588,8.174,6.444,8.546,10.777Zm0,1.667H50.3c-.372,4.333-3.623,8.189-8.542,10.777a34.944,34.944,0,0,0,1.9-10.777Zm5.264-8.842a21.968,21.968,0,0,0-8.056-5.853,21.966,21.966,0,0,0-5.853-8.055A23.457,23.457,0,0,1,48.917,18.992ZM18.992,5.083a21.968,21.968,0,0,0-5.853,8.056,21.968,21.968,0,0,0-8.055,5.853A23.452,23.452,0,0,1,18.992,5.083ZM5.083,35.008a21.968,21.968,0,0,0,8.056,5.853,21.968,21.968,0,0,0,5.852,8.055A23.453,23.453,0,0,1,5.083,35.008ZM35.008,48.917a21.966,21.966,0,0,0,5.853-8.056,21.968,21.968,0,0,0,8.055-5.852A23.457,23.457,0,0,1,35.008,48.917Z" fill="red"/></g></g></svg>