<svg xmlns="http://www.w3.org/2000/svg" width="70" height="70" viewBox="0 0 70 70"><g transform="translate(-1025 -1976)"><g transform="translate(631 4)"><rect width="70" height="70" transform="translate(394 1972)" fill="#fff"/></g><g transform="translate(1033 1984)"><path d="M48.167,18.333a4.167,4.167,0,1,1,4.167-4.167,4.167,4.167,0,0,1-4.167,4.167Zm0-6.667a2.5,2.5,0,1,0,2.5,2.5A2.5,2.5,0,0,0,48.167,11.667Z" transform="translate(-7 -1.333)" fill="red"/><path d="M18.833,37.833A.833.833,0,0,1,18,37V32.833a.833.833,0,0,1,1.667,0V37A.833.833,0,0,1,18.833,37.833Z" transform="translate(-2.667 -5)" fill="red"/><path d="M30.167,22.667H21v-.833A.833.833,0,0,0,20.167,21H16.833a.833.833,0,0,0-.833.833v3.333a.833.833,0,0,0,.833.833h.833v1.667a.833.833,0,1,0,1.667,0V26h.833A.833.833,0,0,0,21,25.167v-.833h9.167a.833.833,0,0,0,0-1.667ZM19.333,24.333H17.667V22.667h1.667Z" transform="translate(-2.333 -3.167)" fill="red"/><path d="M38.333,24.333H36.667v-2.5a.833.833,0,1,0-1.667,0v3.333a.833.833,0,0,0,.833.833H37.5v7.5a.833.833,0,0,0,1.667,0V25.167A.833.833,0,0,0,38.333,24.333Z" transform="translate(-5.5 -3.167)" fill="red"/><path d="M25.667,55H19a.833.833,0,0,0-.833.833v.833H16.5v-.833A.833.833,0,0,0,15.667,55H9.833a.833.833,0,0,0,0,1.667h5V57.5a.833.833,0,0,0,.833.833H19a.833.833,0,0,0,.833-.833v-.833h5.833a.833.833,0,1,0,0-1.667Z" transform="translate(-1.167 -8.833)" fill="red"/><path d="M51.167,10.333H48.241a7.474,7.474,0,0,0-.3-.732l2.069-2.07a.833.833,0,0,0,0-1.178L47.647,3.994a.833.833,0,0,0-1.178,0L44.4,6.063a7.475,7.475,0,0,0-.733-.3V2.833A.833.833,0,0,0,42.833,2H39.5a.833.833,0,0,0-.833.833V5.759a7.475,7.475,0,0,0-.732.3l-2.07-2.069a.833.833,0,0,0-1.178,0L32.513,6.167H16.167a.833.833,0,0,0-.589.244L7.244,14.744A.833.833,0,0,0,7,15.333V39.759A11.655,11.655,0,0,0,4.5,47a2.5,2.5,0,1,0,0,5H27.833a2.5,2.5,0,0,0,2.347-1.667H41.167A.833.833,0,0,0,42,49.5V23.667h.833a.833.833,0,0,0,.833-.833V19.908a7.475,7.475,0,0,0,.733-.3l2.07,2.069a.833.833,0,0,0,1.178,0l2.358-2.358a.833.833,0,0,0,0-1.178l-2.069-2.07a7.475,7.475,0,0,0,.3-.733h2.926A.833.833,0,0,0,52,14.5V11.167A.833.833,0,0,0,51.167,10.333ZM15.333,9.012V14.5H9.845Zm12.5,41.322H4.5a.833.833,0,0,1,0-1.667.833.833,0,0,0,1.667,0V47a9.947,9.947,0,0,1,6.667-9.425v5.258a.833.833,0,0,0,1.667,0V36.167a.833.833,0,0,1,.833-.833H17a.833.833,0,0,1,.833.833v6.667a.833.833,0,0,0,1.667,0v-5.25A9.962,9.962,0,0,1,26.167,47v1.667a.833.833,0,0,0,1.667,0,.833.833,0,0,1,0,1.667Zm12.5-1.667H30.18A2.5,2.5,0,0,0,27.833,47a11.667,11.667,0,0,0-8.369-11.188A2.5,2.5,0,0,0,17,33.667H15.333a2.5,2.5,0,0,0-2.466,2.167,11.638,11.638,0,0,0-4.2,2.225V16.167h7.5A.833.833,0,0,0,17,15.333v-7.5H32.63L34.4,9.6a7.475,7.475,0,0,0-.3.732H31.167a.833.833,0,0,0-.833.833V14.5a.833.833,0,0,0,.833.833h2.926a7.474,7.474,0,0,0,.3.733l-2.069,2.07a.833.833,0,0,0,0,1.178l2.358,2.358a.833.833,0,0,0,1.178,0l2.07-2.069a7.475,7.475,0,0,0,.733.3v2.926a.833.833,0,0,0,.833.833h.833Zm10-35H47.625a.833.833,0,0,0-.807.623,5.613,5.613,0,0,1-.623,1.5.833.833,0,0,0,.124,1.02l1.917,1.917-1.177,1.183-1.917-1.917a.833.833,0,0,0-1.02-.124,5.613,5.613,0,0,1-1.5.623.833.833,0,0,0-.622.8V22H40.333V19.292a.833.833,0,0,0-.623-.807,5.613,5.613,0,0,1-1.5-.623.833.833,0,0,0-1.02.124L35.273,19.9l-1.178-1.177,1.917-1.917a.833.833,0,0,0,.124-1.02,5.613,5.613,0,0,1-.623-1.5.833.833,0,0,0-.8-.626H32V12h2.708a.833.833,0,0,0,.807-.623,5.613,5.613,0,0,1,.623-1.5.833.833,0,0,0-.124-1.02L34.1,6.944l1.177-1.182,1.917,1.917a.833.833,0,0,0,1.02.124,5.613,5.613,0,0,1,1.5-.623.833.833,0,0,0,.622-.8V3.667H42V6.375a.833.833,0,0,0,.623.807,5.613,5.613,0,0,1,1.5.623.833.833,0,0,0,1.02-.124L47.06,5.764l1.178,1.177L46.322,8.858a.833.833,0,0,0-.124,1.02,5.613,5.613,0,0,1,.623,1.5.833.833,0,0,0,.8.622h2.708Z" fill="red"/><path d="M39.333,42.333H38.5v-2.5a.833.833,0,0,0-1.667,0v2.5H36a.833.833,0,0,0-.833.833V44H31.833a.833.833,0,1,0,0,1.667h3.333V46.5a.833.833,0,0,0,.833.833h3.333a.833.833,0,0,0,.833-.833V43.167A.833.833,0,0,0,39.333,42.333ZM38.5,45.667H36.833V44H38.5Z" transform="translate(-4.833 -6.167)" fill="red"/><path d="M30.833,36.667h-5A.833.833,0,0,1,25,35.833v-5A.833.833,0,0,1,25.833,30h5a.833.833,0,0,1,.833.833v5A.833.833,0,0,1,30.833,36.667ZM26.667,35H30V31.667H26.667Z" transform="translate(-3.833 -4.667)" fill="red"/></g></g></svg>