<svg xmlns="http://www.w3.org/2000/svg" width="19.487" height="19.458" viewBox="0 0 19.487 19.458"><path d="M137.445,1142.083c.433-.432.826-.826,1.22-1.218a1.5,1.5,0,0,1,2.265,0q1.087,1.083,2.17,2.168a1.483,1.483,0,0,1,.006,2.205c-.421.421-.822.866-1.274,1.251a4.215,4.215,0,0,1-4.294.761,6.657,6.657,0,0,1-2.1-1.254c-1.753-1.416-3.491-2.847-5.1-4.432a52.333,52.333,0,0,1-3.524-3.9c-.524-.633-1.045-1.268-1.551-1.915a5.132,5.132,0,0,1-1.155-3.064,3.985,3.985,0,0,1,1.1-2.935c.4-.43.823-.843,1.248-1.251a1.462,1.462,0,0,1,2.067-.01q1.2,1.163,2.363,2.36a1.453,1.453,0,0,1,0,2.034c-.375.393-.763.775-1.154,1.153-.1.1-.14.182-.053.311.335.5.651,1.009,1,1.5a20.2,20.2,0,0,0,2.617,3.141,28.84,28.84,0,0,0,2.924,2.275C136.614,1141.546,137.034,1141.81,137.445,1142.083Z" transform="translate(-124.106 -1128.067)" fill="red"/></svg>