<svg xmlns="http://www.w3.org/2000/svg" width="6.79" height="10.313" viewBox="0 0 6.79 10.313"><path d="M471.189-418.428c-.391.5-.806.99-1.208,1.467-.163.194-.327.389-.489.583l-.661.793c-.608.732-1.237,1.488-1.86,2.228a1.021,1.021,0,0,1-.753.426h0a1.033,1.033,0,0,1-.762-.435c-1.233-1.469-2.579-3.083-4.116-4.934a.809.809,0,0,1-.164-1.012.814.814,0,0,1,.664-.409.658.658,0,0,1,.195.03,1.5,1.5,0,0,1,.643.435c.726.843,1.449,1.715,2.148,2.558q.406.49.813.978c.071.085.144.167.232.266l.142.161.219.251.773-.927,2.582-3.1c.028-.033.055-.067.082-.1.077-.094.149-.182.227-.262a.868.868,0,0,1,1.168-.108A.753.753,0,0,1,471.189-418.428Z" transform="translate(419.72 471.373) rotate(-90)" fill="#fff"/></svg>