<svg xmlns="http://www.w3.org/2000/svg" width="15.219" height="13.72" viewBox="0 0 15.219 13.72"><g transform="translate(-741.906 -203.002)"><path d="M742.156,233.264V221.022h9.323c-.047.05-.078.086-.112.117-.419.381-.835.764-1.26,1.138a.409.409,0,0,1-.25.088c-2.711,0-3.423,0-6.134,0h-.2V231.9c.057,0,.11.008.163.008q4.6,0,9.192,0c.135,0,.175-.035.175-.174,0-1.887,0-1.774-.006-3.661a.37.37,0,0,1,.138-.305c.4-.358.791-.723,1.213-1.111.007.075.014.119.014.164,0,2.766,0,3.532,0,6.3,0,.116-.033.152-.151.152q-5.989,0-11.978,0C742.248,233.271,742.209,233.267,742.156,233.264Z" transform="translate(0 -16.802)" fill="red"/><path d="M754.265,233.524h0q-4.838,0-9.675,0h-2.3c-.034,0-.065,0-.1,0l-.046,0-.236-.013V220.772h10.156l-.4.422-.041.044c-.027.03-.053.058-.084.086l-.255.232c-.328.3-.668.609-1.008.908a.654.654,0,0,1-.415.151c-1.946,0-2.871,0-4.333,0h-1.749v9.039h1.888c2.34,0,4.76,0,7.141,0,0-.917,0-1.347,0-1.791s0-.876,0-1.793a.62.62,0,0,1,.221-.492c.289-.259.573-.521.873-.8l.338-.311.372-.342.046.5c0,.024,0,.045.007.064a1.1,1.1,0,0,1,.009.122v1.632c0,1.589,0,2.533,0,4.667a.4.4,0,0,1-.1.294A.4.4,0,0,1,754.265,233.524Zm-11.859-.5h2.183q4.788,0,9.576,0c0-2.065,0-3,0-4.568v-1.238c-.277.255-.54.5-.81.74a.126.126,0,0,0-.055.119c0,.917,0,1.362,0,1.794,0,.456,0,.9,0,1.867a.428.428,0,0,1-.109.315.433.433,0,0,1-.315.109c-2.406,0-4.852,0-7.217,0h-1.976c-.043,0-.084,0-.124-.005l-.051,0-.238-.012V222.119h2.249c1.462,0,2.387,0,4.332,0a.172.172,0,0,0,.085-.026c.3-.268.611-.546.908-.817h-8.443Z" transform="translate(0 -16.802)" fill="red"/><path d="M834.728,209l.894-.877,2.278,2.3,7.4-6.726.927,1-8.238,7.568Z" transform="translate(-89.813)" fill="red"/><path d="M837.977,212.962,834.018,209l1.61-1.579,2.291,2.318L845.332,203l1.606,1.728Zm-2.539-3.956,2.568,2.571,7.514-6.9-.248-.267-7.392,6.716-2.265-2.291Z" transform="translate(-89.813)" fill="red"/></g></svg>