<svg xmlns="http://www.w3.org/2000/svg" width="27.776" height="27.776" viewBox="0 0 27.776 27.776"><g transform="translate(0.25 0.25)"><path d="M13.638,0A13.638,13.638,0,1,0,27.276,13.638,13.653,13.653,0,0,0,13.638,0Zm0,24.3A10.657,10.657,0,1,1,24.3,13.638,10.669,10.669,0,0,1,13.638,24.3Z" fill="red"/><path d="M13.638-.25A13.888,13.888,0,1,1-.25,13.638,13.9,13.9,0,0,1,13.638-.25Zm0,27.276A13.388,13.388,0,1,0,.25,13.638,13.4,13.4,0,0,0,13.638,27.026Zm0-24.3A10.907,10.907,0,1,1,2.731,13.638,10.919,10.919,0,0,1,13.638,2.731Zm0,21.314A10.407,10.407,0,1,0,3.231,13.638,10.419,10.419,0,0,0,13.638,24.045Z" fill="red"/><path d="M259.1,146.127V140.41a1.155,1.155,0,1,0-2.311,0V146.5c0,.018,0,.035.005.053a1.149,1.149,0,0,0,.333.873l4.3,4.3a1.155,1.155,0,0,0,1.634-1.634Z" transform="translate(-244.281 -132.472)" fill="red"/></g></svg>