<svg xmlns="http://www.w3.org/2000/svg" width="54.195" height="54.19" viewBox="0 0 54.195 54.19"><path d="M1216.97-743.623c-.047-.105-.093-.21-.14-.314a3.494,3.494,0,0,1-.353-.8,1.887,1.887,0,0,0-1.9-1.645c-.458-.054-.9-.259-1.353-.332-.4-.065-.48-.269-.477-.635q.022-2.8,0-5.591a.526.526,0,0,1,.493-.624c.795-.173,1.585-.38,2.36-.625a1.052,1.052,0,0,0,.539-.5c.229-.447.347-.952.584-1.393a.946.946,0,0,0-.036-1.112c-.432-.643-.787-1.338-1.2-2a.441.441,0,0,1,.085-.65q2.052-2.025,4.076-4.079a.474.474,0,0,1,.7-.068c.71.439,1.424.872,2.16,1.265a.993.993,0,0,0,.678.03c.351-.1.666-.354,1.018-.419a1.526,1.526,0,0,0,1.318-1.5c.081-.572.3-1.123.422-1.692.067-.324.2-.451.539-.448q2.883.021,5.766,0a.44.44,0,0,1,.514.405c.188.812.388,1.623.642,2.416a1.2,1.2,0,0,0,.533.577c.315.182.722.217,1.018.419a1.462,1.462,0,0,0,1.886-.131,11.4,11.4,0,0,1,1.605-.942.633.633,0,0,1,.578.071c1.39,1.355,2.752,2.739,4.134,4.1a.444.444,0,0,1,.061.653c-.437.711-.874,1.423-1.263,2.161a1.04,1.04,0,0,0-.033.728c.172.534.443,1.036.617,1.569a.768.768,0,0,0,.641.57c.775.177,1.537.408,2.312.584.339.077.481.209.477.58-.018,1.9-.015,3.805,0,5.708a.471.471,0,0,1-.435.553c-.813.185-1.623.39-2.417.639a1.05,1.05,0,0,0-.54.5c-.229.447-.337.958-.586,1.392a.975.975,0,0,0,.069,1.163c.417.63.767,1.305,1.169,1.946a.443.443,0,0,1-.083.651q-2.052,2.025-4.076,4.078a.471.471,0,0,1-.7.065c-.709-.439-1.425-.871-2.161-1.263a.98.98,0,0,0-.677-.027c-.387.118-.738.37-1.129.46a1.366,1.366,0,0,0-1.17,1.288c-.087.629-.329,1.236-.463,1.861-.069.323-.2.451-.539.448q-2.883-.021-5.766,0a.441.441,0,0,1-.514-.405c-.192-.831-.4-1.659-.654-2.474a1,1,0,0,0-.462-.5c-.321-.175-.722-.215-1.02-.416a1.5,1.5,0,0,0-1.941.112c-.48.357-1.038.608-1.542.936a.468.468,0,0,1-.7-.092q-2-2.034-4.038-4.034a.5.5,0,0,1-.074-.746c.423-.674.817-1.366,1.22-2.052C1216.821-743.331,1216.889-743.47,1216.97-743.623Zm24.22,2.606c-.079-.151-.136-.273-.2-.389-.363-.619-.748-1.228-1.083-1.862a.835.835,0,0,1-.028-.618c.414-1.063.846-2.12,1.311-3.162a.99.99,0,0,1,.537-.489c.665-.211,1.349-.36,2.03-.519.3-.069.47-.178.462-.536-.023-1.028-.019-2.058,0-3.087a.45.45,0,0,0-.413-.515c-.68-.158-1.353-.352-2.036-.5a.771.771,0,0,1-.623-.578c-.388-1.032-.843-2.038-1.24-3.066a.908.908,0,0,1,.01-.667c.34-.653.725-1.284,1.115-1.91a.44.44,0,0,0-.083-.65c-.727-.7-1.444-1.412-2.14-2.143a.467.467,0,0,0-.7-.079c-.607.382-1.222.757-1.858,1.088a.908.908,0,0,1-.668.027c-1.047-.4-2.087-.827-3.11-1.286a1.07,1.07,0,0,1-.527-.571c-.217-.662-.368-1.347-.521-2.029a.474.474,0,0,0-.555-.438q-1.514.031-3.028,0a.475.475,0,0,0-.549.444c-.155.681-.3,1.367-.521,2.029a1.072,1.072,0,0,1-.531.568c-1.023.46-2.062.884-3.107,1.292a.837.837,0,0,1-.62-.011c-.651-.345-1.284-.726-1.907-1.12a.468.468,0,0,0-.7.093q-1.047,1.093-2.141,2.142a.44.44,0,0,0-.074.651c.379.609.758,1.222,1.084,1.86a.982.982,0,0,1,.03.716c-.387,1.011-.85,1.995-1.219,3.012a.851.851,0,0,1-.7.646c-.646.134-1.278.327-1.922.468a.5.5,0,0,0-.467.59q.036,1.484,0,2.97c-.01.373.148.51.476.583.662.149,1.315.34,1.979.48a.776.776,0,0,1,.619.585c.39,1.031.844,2.037,1.242,3.066a.909.909,0,0,1-.01.668c-.34.653-.725,1.284-1.116,1.909a.44.44,0,0,0,.086.65c.726.7,1.443,1.413,2.141,2.142a.469.469,0,0,0,.7.081c.608-.382,1.222-.757,1.858-1.089a.908.908,0,0,1,.669-.031c1.028.4,2.031.862,3.064,1.245a.812.812,0,0,1,.606.668c.139.664.336,1.316.483,1.979a.474.474,0,0,0,.557.434c.99-.02,1.981-.026,2.97,0,.4.011.543-.147.62-.505a18.941,18.941,0,0,1,.505-1.972,1.076,1.076,0,0,1,.534-.565c1.023-.459,2.063-.882,3.109-1.289a.837.837,0,0,1,.619.009c.651.344,1.285.724,1.907,1.12a.465.465,0,0,0,.7-.093c.684-.715,1.4-1.4,2.093-2.107C1241.008-740.779,1241.1-740.9,1241.191-741.018Z" transform="translate(-1212.742 787.711)" fill="red"/><path d="M1508.677-646.122c1.3.152,2.491.26,3.675.442a4.423,4.423,0,0,0,2.672-.352,9.507,9.507,0,0,1,12.232,4.3A9.6,9.6,0,0,1,1524-629.158a9.581,9.581,0,0,1-11.613-.886,9.586,9.586,0,0,1-2.178-11.542,1.11,1.11,0,0,0,.012-.8c-.409-1.048-.868-2.077-1.307-3.113C1508.839-645.671,1508.78-645.848,1508.677-646.122Zm7.31,10.2a6.063,6.063,0,0,1-.695-4.147,3.539,3.539,0,0,1,3.489-3.26,3.42,3.42,0,0,1,3.459,3.194c.067,1.414.291,2.886-.724,4.2,1.662.708,3.1,1.551,3.356,3.639.225-.3.347-.44.451-.6a7.826,7.826,0,0,0-.839-9.723,7.866,7.866,0,0,0-9.668-1.4,2.234,2.234,0,0,1-1.141.238c-.711-.025-1.418-.15-2.232-.246.257.607.448,1.13.7,1.625a1.043,1.043,0,0,1-.07,1.119,7.65,7.65,0,0,0,.146,8.371c.1.169.245.315.463.592C1512.934-634.4,1514.382-635.223,1515.987-635.922Zm-1.318,2.874.1.144h8.036l.076-.141a7.207,7.207,0,0,0-.869-.691c-.553-.319-1.138-.585-1.71-.87a1.53,1.53,0,0,1-.374-2.224,3.428,3.428,0,0,0,.574-1.4,7.367,7.367,0,0,0,.02-1.509,1.756,1.756,0,0,0-1.7-1.847,1.8,1.8,0,0,0-1.78,1.727,13.22,13.22,0,0,0,.008,1.918,1.265,1.265,0,0,0,.335.838c.624.479.549,1.117.5,1.742a.888.888,0,0,1-.378.607c-.635.37-1.32.655-1.961,1.016A7.025,7.025,0,0,0,1514.669-633.048Zm-.689,1.988c2.583,2.241,7.935,2.2,9.468,0Z" transform="translate(-1474.197 681.788)" fill="red"/><path d="M1457.131-865.209v-4.013c-.559,0-1.077.006-1.6,0a2.6,2.6,0,0,1-2.754-2.739q-.019-6,0-12a2.589,2.589,0,0,1,2.752-2.738q10.338-.013,20.677,0a2.6,2.6,0,0,1,2.782,2.768q.016,5.97,0,11.94a2.6,2.6,0,0,1-2.786,2.766c-3.475.011-6.951,0-10.426.015a2.5,2.5,0,0,0-1.052.246c-2.318,1.135-4.622,2.3-6.931,3.451C1457.612-865.42,1457.42-865.34,1457.131-865.209Zm1.767-2.808c1.876-.939,3.638-1.834,5.415-2.7a2.515,2.515,0,0,1,1.051-.248c3.552-.018,7.1-.009,10.657-.012.96,0,1.221-.256,1.222-1.2q0-5.765,0-11.53c0-.988-.254-1.24-1.243-1.241q-10.1,0-20.207,0c-1.026,0-1.262.239-1.263,1.279q0,5.707,0,11.414c0,1.04.237,1.28,1.26,1.282s2.047,0,3.108,0Z" transform="translate(-1424.806 893.695)" fill="red"/><path d="M1229.391-930.964v3.286a34.616,34.616,0,0,1-3-1.826,7.574,7.574,0,0,0-5.379-1.487c-1.776.131-3.569.033-5.354.026a2.63,2.63,0,0,1-2.865-2.863q-.01-5.007,0-10.014a2.626,2.626,0,0,1,2.873-2.853q10.247-.006,20.494,0a2.623,2.623,0,0,1,2.849,2.877q.009,4.978,0,9.956a2.638,2.638,0,0,1-2.89,2.9C1233.908-930.959,1231.7-930.964,1229.391-930.964Zm-1.732-1.753h.722q3.873,0,7.746,0c.84,0,1.127-.285,1.128-1.12q.008-4.98,0-9.96c0-.87-.281-1.144-1.163-1.145q-10.193,0-20.385,0c-.882,0-1.161.274-1.162,1.144q-.007,4.951,0,9.9c0,.911.271,1.178,1.187,1.18,2.116,0,4.236.078,6.347-.023a6.041,6.041,0,0,1,4.289,1.2,10.673,10.673,0,0,0,1.291.755Z" transform="translate(-1212.783 946.699)" fill="red"/><path d="M1286.3-703.691a10.505,10.505,0,0,1-10.482,10.492,10.505,10.505,0,0,1-10.491-10.482,10.5,10.5,0,0,1,10.482-10.491A10.5,10.5,0,0,1,1286.3-703.691Zm-19.223-.025a8.757,8.757,0,0,0,8.721,8.767,8.758,8.758,0,0,0,8.752-8.679,8.754,8.754,0,0,0-8.693-8.794A8.753,8.753,0,0,0,1267.078-703.716Z" transform="translate(-1259.201 741.264)" fill="red"/><path d="M1508.669-847.63h1.759v-6.913h1.732v6.9h1.731v-8.635h1.748v10.395h-17.394v-1.707h1.685v-3.455h1.739v3.4h1.732v-5.134h1.779v5.142h1.731v-8.645h1.759Z" transform="translate(-1464.98 866.817)" fill="red"/><path d="M1242.858-899.112a2.613,2.613,0,0,1,2.717-2.531,2.617,2.617,0,0,1,2.519,2.672,2.619,2.619,0,0,1-2.69,2.562A2.615,2.615,0,0,1,1242.858-899.112Zm3.476.1a.857.857,0,0,0-.832-.873.858.858,0,0,0-.886.818.857.857,0,0,0,.861.9A.855.855,0,0,0,1246.334-899.014Z" transform="translate(-1239.348 906.894)" fill="red"/><path d="M1305.466-896.409a2.617,2.617,0,0,1-2.611-2.642,2.614,2.614,0,0,1,2.656-2.6,2.616,2.616,0,0,1,2.582,2.612A2.619,2.619,0,0,1,1305.466-896.409Zm.867-2.6a.856.856,0,0,0-.829-.876.858.858,0,0,0-.889.815.857.857,0,0,0,.858.905A.855.855,0,0,0,1306.333-899.013Z" transform="translate(-1292.356 906.896)" fill="red"/><path d="M1368.091-899a2.62,2.62,0,0,1-2.657,2.6,2.617,2.617,0,0,1-2.581-2.672,2.613,2.613,0,0,1,2.627-2.566A2.616,2.616,0,0,1,1368.091-899Zm-1.76-.024a.855.855,0,0,0-.846-.859.855.855,0,0,0-.872.832.857.857,0,0,0,.875.888A.855.855,0,0,0,1366.332-899.028Z" transform="translate(-1345.364 906.894)" fill="red"/><path d="M1320.823-663.9a5.257,5.257,0,0,1-5.286,5.227,5.261,5.261,0,0,1-5.2-5.259,5.26,5.26,0,0,1,5.287-5.226A5.258,5.258,0,0,1,1320.823-663.9Zm-1.75-.031a3.511,3.511,0,0,0-3.492-3.477,3.515,3.515,0,0,0-3.492,3.478,3.516,3.516,0,0,0,3.521,3.507A3.518,3.518,0,0,0,1319.073-663.935Z" transform="translate(-1298.968 701.498)" fill="red"/></svg>