<svg xmlns="http://www.w3.org/2000/svg" width="11.959" height="11.959" viewBox="0 0 11.959 11.959"><path d="M11.662,4.867,10.6,4.739a4.765,4.765,0,0,0-.475-1.149l.663-.843a.346.346,0,0,0-.027-.447l-1.1-1.1a.347.347,0,0,0-.447-.027l-.845.664a4.7,4.7,0,0,0-1.146-.474L7.092.3A.347.347,0,0,0,6.757,0H5.2a.346.346,0,0,0-.334.3L4.739,1.364a4.738,4.738,0,0,0-1.147.474l-.844-.663A.347.347,0,0,0,2.3,1.2L1.2,2.3a.347.347,0,0,0-.026.447l.663.844a4.726,4.726,0,0,0-.474,1.148L.3,4.868A.346.346,0,0,0,0,5.2V6.759a.346.346,0,0,0,.3.334l1.067.128a4.755,4.755,0,0,0,.474,1.146l-.663.845a.347.347,0,0,0,.027.447l1.1,1.1a.347.347,0,0,0,.446.027l.845-.665a4.708,4.708,0,0,0,1.147.474l.128,1.067a.346.346,0,0,0,.334.3H6.757a.345.345,0,0,0,.334-.3L7.22,10.6a4.749,4.749,0,0,0,1.147-.474l.845.663a.346.346,0,0,0,.446-.027l1.1-1.1a.347.347,0,0,0,.027-.447l-.664-.844A4.732,4.732,0,0,0,10.6,7.22l1.067-.128a.345.345,0,0,0,.3-.334V5.2A.345.345,0,0,0,11.662,4.867ZM5.98,8.167A2.188,2.188,0,1,1,8.168,5.979,2.187,2.187,0,0,1,5.98,8.167Z" fill="red"/></svg>