<svg xmlns="http://www.w3.org/2000/svg" width="14.976" height="11.918" viewBox="0 0 14.976 11.918"><g transform="translate(0.001 -46.994)"><g transform="translate(-0.001 46.994)"><path d="M71.048,120.939l-5.341,4.4a.127.127,0,0,1,0,.028.127.127,0,0,0,0,.028v4.459a.6.6,0,0,0,.595.595h3.567v-3.567h2.378v3.567H75.8a.6.6,0,0,0,.595-.595V125.4a.13.13,0,0,0-.009-.056Z" transform="translate(-63.561 -118.533)" fill="#fff"/><path d="M14.872,52.8l-2.034-1.691v-3.79a.286.286,0,0,0-.3-.3H10.757a.286.286,0,0,0-.3.3v1.811L8.193,47.236a1.152,1.152,0,0,0-1.412,0L.1,52.8A.27.27,0,0,0,0,53a.3.3,0,0,0,.065.218l.576.687a.317.317,0,0,0,.2.1.345.345,0,0,0,.223-.065l6.428-5.36,6.428,5.36a.286.286,0,0,0,.2.065h.028a.317.317,0,0,0,.2-.1l.576-.687A.3.3,0,0,0,14.974,53,.271.271,0,0,0,14.872,52.8Z" transform="translate(0.001 -46.994)" fill="#fff"/></g></g></svg>