<svg xmlns="http://www.w3.org/2000/svg" width="15.428" height="14.785" viewBox="0 0 15.428 14.785"><g transform="translate(0 0)"><path d="M8.75,17.612v2.981a.482.482,0,0,0,.87.285l1.744-2.373Z" transform="translate(-3.125 -6.291)" fill="#fff"/><path d="M15.225.089a.482.482,0,0,0-.5-.035L.259,7.608a.482.482,0,0,0,.067.884L4.347,9.866,12.91,2.544,6.284,10.528l6.739,2.3a.493.493,0,0,0,.156.026.482.482,0,0,0,.477-.411L15.423.553a.483.483,0,0,0-.2-.464Z" transform="translate(0)" fill="#fff"/></g></svg>