<svg xmlns="http://www.w3.org/2000/svg" width="28.774" height="28.73" viewBox="0 0 28.774 28.73"><path d="M143.8,1148.763c.639-.638,1.219-1.219,1.8-1.8a2.208,2.208,0,0,1,3.344,0q1.6,1.6,3.2,3.2a2.19,2.19,0,0,1,.009,3.256c-.621.622-1.214,1.278-1.882,1.847a6.223,6.223,0,0,1-6.34,1.124,9.83,9.83,0,0,1-3.1-1.852c-2.588-2.091-5.154-4.2-7.524-6.544a77.281,77.281,0,0,1-5.2-5.763c-.773-.934-1.542-1.873-2.29-2.828a7.577,7.577,0,0,1-1.706-4.525,5.884,5.884,0,0,1,1.617-4.333c.593-.635,1.215-1.245,1.842-1.847a2.158,2.158,0,0,1,3.052-.014q1.769,1.718,3.489,3.484a2.145,2.145,0,0,1-.007,3c-.554.581-1.127,1.144-1.7,1.7-.154.149-.206.269-.078.459.5.735.961,1.49,1.477,2.21a29.824,29.824,0,0,0,3.864,4.637,42.591,42.591,0,0,0,4.317,3.359C142.574,1147.969,143.194,1148.359,143.8,1148.763Z" transform="translate(-124.106 -1128.067)" fill="red"/></svg>