<svg xmlns="http://www.w3.org/2000/svg" width="52.804" height="60.575" viewBox="0 0 52.804 60.575"><g transform="translate(-3242.209 895.747)"><path d="M3251.515-863.8c-3.257-3.037-4.188-6.022-2.919-9.316s3.959-4.9,8.56-5.011c-.653-.734-1.536-.528-2.195-.9v-5.989c.045-.037.06-.061.076-.062a2.609,2.609,0,0,0,2.629-2.239,1.142,1.142,0,0,0-.067-1.016c-.783-1.257-.769-1.265.279-2.331l3.162-3.217c.534.33.979.643,1.458.883a1.415,1.415,0,0,0,.7.037c.12-.01.228-.134.351-.162a2.2,2.2,0,0,0,1.981-2.226c0-.134.3-.366.469-.369,1.737-.027,3.474-.005,5.211-.026.433-.005.524.249.545.564a2.041,2.041,0,0,0,1.6,1.959,1.8,1.8,0,0,0,2.094-.193,5.308,5.308,0,0,1,.759-.465q1.245,1.272,2.494,2.548c.457.465.9.941,1.383,1.381.278.255.343.485.086.77a2.13,2.13,0,0,0-.264,2.692c.336.663.619,1.12,1.387,1.182a6.476,6.476,0,0,1,.977.233v6.033c-.632.421-1.533.162-2.213.915,4.506-.2,7.555,1.629,8.823,5.864.927,3.1-.155,5.743-3.187,8.479.229.1.428.2.634.285a13.671,13.671,0,0,1,8.683,12.773c.01,1.256,0,2.511,0,3.865h-15.146a12.72,12.72,0,0,1,2.243,5.675c.205,1.978.189,3.979.272,6.014h-27.4c-.2-4.073-.2-8.073,2.426-11.666h-15.011c-.082-.1-.134-.128-.135-.16-.046-2.9-.277-5.828.844-8.618a13.736,13.736,0,0,1,7.725-7.856c.2-.083.4-.166.6-.25C3251.447-863.73,3251.46-863.75,3251.515-863.8Zm5.394-16.754c.564.155,1.2.15,1.526.467.343.338.384.981.558,1.49.014.041.033.08.047.121a3.742,3.742,0,0,0,1.365,1.816,8.135,8.135,0,0,1,2.141,2.31,4.045,4.045,0,0,0,2.248,1.818c.506.192,1.042.3,1.547.5a.932.932,0,0,1,.482.421c.194.419.194,1.05.5,1.261.328.225.92.068,1.4.076.13,0,.26,0,.391,0,1.183-.012.934.119,1.185-.977a1.031,1.031,0,0,1,.854-.876,13.483,13.483,0,0,0,2.352-.925,2.369,2.369,0,0,0,.874-.887,6.963,6.963,0,0,1,2.3-2.618,3.457,3.457,0,0,0,1.681-2.419,1.552,1.552,0,0,1,1.549-1.465.612.612,0,0,0,.423-.416c.04-.883.02-1.77.02-2.657a6.875,6.875,0,0,0-.884-.212c-.57-.058-.815-.337-.979-.907a12.122,12.122,0,0,0-1.042-2.513,1.1,1.1,0,0,1,.062-1.45,1.223,1.223,0,0,0,.262-.446.564.564,0,0,0-.025-.448c-.6-.645-1.234-1.265-1.858-1.894a8.532,8.532,0,0,1-1.071.648,1.078,1.078,0,0,1-.736.027c-1.068-.411-2.125-.854-3.172-1.315a.958.958,0,0,1-.5-.472c-.421-1.275-.407-1.28-1.752-1.28h-.325c-1.149,0-1.134,0-1.433,1.1a1,1,0,0,1-.437.619c-1.216.5-2.455.943-3.824,1.458l-1.329-.809c-.438.473-.841.927-1.266,1.36-.732.747-.758.755-.188,1.623a.911.911,0,0,1,.035,1.113,6.517,6.517,0,0,0-.887,1.942,1.956,1.956,0,0,1-1.976,1.846c-.031,0-.06.052-.106.1Zm36.06,31.706c.894-5.442-2.975-11.89-7.7-12.873-.019.237-.036.47-.056.7a5.141,5.141,0,0,1-1.515,3.368,3.283,3.283,0,0,1-4.732.009,5.145,5.145,0,0,1-1.53-3.428c-.018-.227-.034-.454-.055-.722-.222.076-.366.118-.506.173-.881.348-.861.345-.668,1.238a7.627,7.627,0,0,1-2.692,7.869c-.168.145-.349.278-.594.472a14.741,14.741,0,0,1,5.091,3.038,1.163,1.163,0,0,0,.725.174c2.93.011,5.86.008,8.791.006.191,0,.381-.021.652-.037v-5.791h1.96v5.8Zm-31.2-21.449a5.848,5.848,0,0,0-5.812-5.881,5.849,5.849,0,0,0-5.9,5.8,5.852,5.852,0,0,0,5.845,5.915A5.851,5.851,0,0,0,3261.764-870.3Zm19.57,5.83a5.852,5.852,0,0,0,5.843-5.852,5.848,5.848,0,0,0-5.9-5.859,5.849,5.849,0,0,0-5.811,5.883A5.851,5.851,0,0,0,3281.335-864.467Zm-12.713,11.73a5.871,5.871,0,0,0,5.855-5.847,5.869,5.869,0,0,0-5.834-5.866,5.87,5.87,0,0,0-5.887,5.878A5.869,5.869,0,0,0,3268.622-852.737Zm-8.581,1.845-4.132-5.146-4.139,5.156c-.68-1.493-1.3-2.87-1.933-4.245s-1.256-2.739-1.894-4.133a11.667,11.667,0,0,0-3.654,10.4h2.818v-5.784h1.971v5.772a3.057,3.057,0,0,0,.362.048c3.084,0,6.168.012,9.251-.013a1.725,1.725,0,0,0,.784-.368c1.2-.767,2.388-1.561,3.6-2.316a8.051,8.051,0,0,1,1.1-.492l-2.423-2.56Zm15.043,2.156-4.96,11.594h5.35v-5.763h1.963v5.777h2.835A11.836,11.836,0,0,0,3275.084-848.736Zm-12.932.007a11.8,11.8,0,0,0-5.2,11.581h2.881v-5.768h1.963v5.778h5.311Zm6.465,10.126,4.741-11.1c-2.537-1.409-7.251-1.392-9.479.018Zm4.82-32.12a1.546,1.546,0,0,0-1.633,1.655c-.027.593-.311.788-.917.768-1.432-.048-2.866-.011-4.3-.016-1.2,0-.943.1-1.209-.959-.295-1.181-.379-1.273-1.647-1.442a7.972,7.972,0,0,1-3.488,6.931l1.875.793a7.847,7.847,0,0,1,6.512-3.413,7.888,7.888,0,0,1,6.5,3.417l1.811-.783C3274.129-866.577,3274.129-866.577,3273.437-870.723Zm-18.831,13.167c-1.2-1.193-2.359-2.364-3.544-3.5-.514-.494-.842.141-1.223.313-.112.05-.18.447-.107.614.692,1.589,1.418,3.162,2.136,4.74.1.23.217.456.375.788Zm26.665-4.959a12.681,12.681,0,0,0-1.372.128.673.673,0,0,0-.466.4,3.344,3.344,0,0,0,.779,2.848,1.408,1.408,0,0,0,2.219.005,3.511,3.511,0,0,0,.844-2.332c.032-.619-.134-1-.849-.973A10.668,10.668,0,0,1,3281.271-862.515Zm-20.085,1.362-3.793,3.822,2.223,2.767c.442-1.414,1.464-2.46,1.2-3.958a4.362,4.362,0,0,1,.106-1.352C3260.99-860.327,3261.105-860.773,3261.186-861.153Zm-5.354,1.925,2.939-2.915a11.486,11.486,0,0,0-5.827.045Z" transform="translate(0)" fill="red"/><path d="M3392.667-835.029a7.841,7.841,0,0,1-7.84-7.817,7.84,7.84,0,0,1,7.833-7.822,7.838,7.838,0,0,1,7.807,7.784A7.839,7.839,0,0,1,3392.667-835.029Zm0-1.964a5.871,5.871,0,0,0,5.841-5.86,5.869,5.869,0,0,0-5.913-5.852,5.87,5.87,0,0,0-5.809,5.891A5.871,5.871,0,0,0,3392.668-836.993Z" transform="translate(-124.032 -39.203)" fill="red"/><path d="M3418.729-812.841a3.917,3.917,0,0,1-3.89-3.91,3.917,3.917,0,0,1,3.96-3.9,3.914,3.914,0,0,1,3.857,3.942A3.913,3.913,0,0,1,3418.729-812.841Zm1.97-3.911a1.962,1.962,0,0,0-1.954-1.943,1.955,1.955,0,0,0-1.948,1.948,1.961,1.961,0,0,0,1.954,1.943A1.963,1.963,0,0,0,3420.7-816.751Z" transform="translate(-150.131 -65.304)" fill="red"/></g></svg>