<svg xmlns="http://www.w3.org/2000/svg" width="59.429" height="59.434" viewBox="0 0 59.429 59.434"><g transform="translate(0 0)"><path d="M2168.915-909.594h34.6v1.988h-34.6v.851q0,16.617,0,33.234c0,1.341-.23,1.568-1.593,1.569-.783,0-1.568-.014-2.351.006a1.966,1.966,0,0,0-1.992,1.948,1.984,1.984,0,0,0,1.951,2c.227.012.454,0,.681,0q12.656,0,25.312-.016c.643,0,.8.179.781.8-.046,1.2-.012,1.2-1.22,1.2q-12.657,0-25.313,0a3.917,3.917,0,0,1-4.111-3.286,4.686,4.686,0,0,1-.069-.922q0-20.547,0-41.094a3.966,3.966,0,0,1,4.178-4.208c.866,0,1.733-.01,2.6,0a1.01,1.01,0,0,1,1.144,1.142C2168.922-912.814,2168.915-911.25,2168.915-909.594Zm-2.034,35.55v-39.5h-1.528c-1.65,0-2.379.727-2.379,2.373q0,18.5,0,37v.507Z" transform="translate(-2160.989 917.522)" fill="red"/><path d="M2292.746-787.515v1.93h-8.764c.2.283.3.449.428.6,1.854,2.32,3.7,4.642,5.576,6.947a1.047,1.047,0,0,0,.7.366c4.166.022,8.332.016,12.5.014.078,0,.156-.016.337-.035l-1.613-2.08,1.543-1.225c1.022,1.288,2.011,2.524,2.982,3.775a1.012,1.012,0,0,1,.184.577c.012,2.267.008,4.534.008,6.86h-1.963v-5.841h-13.823v9.841h8.811v1.965c-.2.011-.42.034-.636.034q-12.343,0-24.686,0c-1.059,0-1.365-.305-1.366-1.361,0-3.712-.016-7.425.019-11.136a2.262,2.262,0,0,1,.45-1.287c2.472-3.145,4.985-6.258,7.478-9.387a1.377,1.377,0,0,1,1.146-.605c3.424.01,6.847,0,10.271.007C2292.445-787.554,2292.565-787.533,2292.746-787.515Zm-3.985,21.746v-9.865h-13.817v2.923c0,2.123-.007,4.247.013,6.37,0,.19.174.536.281.541.875.044,1.753.025,2.675.025v-.766c0-1.958,0-3.917,0-5.875,0-.931.341-1.27,1.267-1.273,1.731,0,3.463,0,5.195,0,1.18,0,1.46.277,1.461,1.451,0,1.979.009,3.958-.006,5.937,0,.393.107.554.523.54C2287.136-765.788,2287.918-765.769,2288.761-765.769Zm-1.052-11.913-5.835-7.291-5.831,7.291Zm-7.789,11.911c1.233,0,2.4-.006,3.571,0,.38,0,.363-.244.362-.5,0-1.689,0-3.378-.005-5.067a1.427,1.427,0,0,0-.071-.323h-3.857Z" transform="translate(-2259.097 805.395)" fill="red"/><path d="M2409.565-699.1q0,7.455,0,14.909c0,1.084-.311,1.393-1.4,1.393q-14.971,0-29.942-.016a1.807,1.807,0,0,1-1.1-.389c-.423-.368-.3-.935.223-1.459q3.1-3.112,6.21-6.213l23.49-23.49c.2-.2.413-.4.611-.614a1.085,1.085,0,0,1,1.315-.4,1.113,1.113,0,0,1,.6,1.184c-.009,2.7,0,5.4,0,8.1Zm-2.008-12.641-26.937,26.917h26.938Z" transform="translate(-2350.147 742.23)" fill="red"/><path d="M2431.565-907.542l-2.2,2.368-1.336-1.463,2.313-2.145c-1.01-.653-.615-1.372-.428-2.121a8.927,8.927,0,0,1,2.629-4.275c5.3-5.2,10.515-10.475,15.763-15.722.982-.982,1.274-.981,2.279.018q1.667,1.657,3.321,3.325c.663.67.663,1.122-.009,1.794q-8.7,8.706-17.41,17.4a2.747,2.747,0,0,1-.936.562c-.709.276-1.449.472-2.159.746A1.346,1.346,0,0,1,2431.565-907.542Zm17.881-21.516-10.308,10.3,2.372,2.388,10.334-10.317ZM2433.7-913.349l2.393,2.422,3.88-3.845-2.431-2.43Zm.559,3.877-2.022-1.992c.039.514-.761.985-.1,1.789C2432.908-908.731,2433.588-909.221,2434.259-909.472Z" transform="translate(-2394.975 931.635)" fill="red"/><path d="M2451.927-669.6c-.64,0-1.279.014-1.918,0a.97.97,0,0,1-1.05-1.045q-.032-1.917,0-3.835a.966.966,0,0,1,1.046-1.05q1.917-.028,3.835,0a.964.964,0,0,1,1.047,1.046q.029,1.917,0,3.835a.978.978,0,0,1-1.1,1.052C2453.165-669.588,2452.546-669.6,2451.927-669.6Zm.944-2.007v-1.9h-1.885v1.9Z" transform="translate(-2413.3 707.248)" fill="red"/><path d="M2576.962-811.258h1.943v13.832a14.857,14.857,0,0,1-1.617-.024c-.126-.014-.31-.331-.312-.51-.022-1.977-.014-3.955-.014-5.933Z" transform="translate(-2525.47 826.159)" fill="red"/><path d="M2243.22-835.534c.124,0,.249-.008.372,0,.424.031,1.14-.053,1.213.125a3.811,3.811,0,0,1,.094,1.571c-.005.1-.271.253-.432.275-.481.066-1.121-.09-1.408.167-.246.219-.109.888-.105,1.358,0,.343-.121.458-.467.475-1.523.074-1.523.084-1.523-1.455,0-.474-.013-.949,0-1.423a.992.992,0,0,1,1.077-1.088c.391-.017.783,0,1.175,0Z" transform="translate(-2231.06 847.432)" fill="red"/><path d="M2243.031-591.965c-.433,0-.868.02-1.3,0a.927.927,0,0,1-.97-.929,15.13,15.13,0,0,1,.01-2.657c.1-.76.8-.252,1.219-.345.247-.056.718-.223.732.35.01.392.016.784,0,1.176-.013.321.121.446.438.434a6.7,6.7,0,0,1,1.113.007c.855.111.321.778.406,1.177.06.279.25.808-.412.8-.412-.006-.825,0-1.238,0Z" transform="translate(-2230.839 637.53)" fill="red"/><path d="M2502.985-583.575c-1.567,0-3.135,0-4.7,0a1.074,1.074,0,0,1-1.158-.637,1.062,1.062,0,0,1,.362-1.218q4.795-4.787,9.582-9.582a1.069,1.069,0,0,1,1.216-.371,1.068,1.068,0,0,1,.645,1.152c0,3.135,0,6.27,0,9.405,0,.892-.351,1.241-1.237,1.245C2506.12-583.57,2504.553-583.575,2502.985-583.575Zm3.906-2v-6.067l-6.076,6.067Z" transform="translate(-2455.451 637.066)" fill="red"/></g></svg>