<svg xmlns="http://www.w3.org/2000/svg" width="24.183" height="19.649" viewBox="0 0 24.183 19.649"><g transform="translate(0)"><g transform="translate(0)"><path d="M24.183,50.326a10.336,10.336,0,0,1-2.857.783,4.93,4.93,0,0,0,2.181-2.74,9.908,9.908,0,0,1-3.144,1.2,4.957,4.957,0,0,0-8.576,3.39A5.1,5.1,0,0,0,11.9,54.09,14.033,14.033,0,0,1,1.684,48.9,4.959,4.959,0,0,0,3.207,55.53a4.9,4.9,0,0,1-2.24-.611v.054a4.981,4.981,0,0,0,3.972,4.871,4.948,4.948,0,0,1-1.3.163,4.383,4.383,0,0,1-.939-.085,5,5,0,0,0,4.633,3.454,9.962,9.962,0,0,1-6.147,2.115A9.287,9.287,0,0,1,0,65.424a13.957,13.957,0,0,0,7.606,2.225A14.013,14.013,0,0,0,21.716,53.541c0-.219-.008-.431-.018-.641A9.89,9.89,0,0,0,24.183,50.326Z" transform="translate(0 -48)" fill="red"/></g></g></svg>