<svg xmlns="http://www.w3.org/2000/svg" width="162.621" height="85.351" viewBox="0 0 162.621 85.351"><g transform="translate(-224.858 -173.018)"><g transform="translate(224.858 173.018)"><path d="M321.911,220.659h1.539q8.463,0,16.926,0c4.632,0,9.281.082,13.913-.024,5.783-.132,12.642-1.984,15.069-7.87a10.552,10.552,0,0,0-1-9.607c-2.351-3.6-6.623-5.484-10.789-5.919-5.354-.559-10.755-.053-16.123-.2-1.7-.046-3.4.028-5.095-.026a3.8,3.8,0,0,1-1.551-.445c-.684-.351-.529-1.065-.426-1.639a1.049,1.049,0,0,1,1.022-.844c1.1-.079,2.193-.21,3.289-.211q24.046-.019,48.093-.018c.505,0,.7.1.7.65-.013,11.374.019,22.749-.04,34.123a3.853,3.853,0,0,1-2.221,3.235,5.244,5.244,0,0,1-2.684.6q-47.435.031-94.869.016-28.741,0-57.482,0a5.478,5.478,0,0,1-3.7-1.044,3.939,3.939,0,0,1-1.609-3.061c-.019-2.385.007-4.771-.015-7.156,0-.452.1-.577.57-.576q16.958.015,33.916.01c4.8,0,9.631.168,14.436.006,5.543-.186,11.8-2.058,14.391-7.444a10.513,10.513,0,0,0,.784-6.049c-.59-4.46-4.475-7.694-8.52-9.1-3.927-1.367-8.117-1.026-12.2-1.03-4.285,0-8.569,0-12.854-.005a2.276,2.276,0,0,1-1.8-.679,1.3,1.3,0,0,1-.244-1.389,1.2,1.2,0,0,1,1.092-.876c1.1-.065,2.192-.206,3.288-.208q11.279-.028,22.558,0a1,1,0,0,0,.905-.441c1.654-2.185,3.337-4.348,5.006-6.523.539-.7,1.063-1.416,1.666-2.22H287.1q-13.735,0-27.466-.082a46.971,46.971,0,0,0-7.718.389,15.73,15.73,0,0,0-7.112,2.84,9.775,9.775,0,0,0-3.885,8.935c.576,3.846,3.88,6.832,7.531,8.172s7.636,1.335,11.525,1.315l13.941-.072a6.3,6.3,0,0,1,3.6.705,2.281,2.281,0,0,1,.912,2.867c-.969,1.669-3.717,1.536-5.348,1.647-2.413.164-4.834.155-7.251.146-11.134,0-22.265-.054-33.4-.055h-6.273c-1.289,0-1.289,0-1.289-1.3q0-16.489-.012-32.978a4.154,4.154,0,0,1,1.474-3.131,4.276,4.276,0,0,1,3.176-1.076q60.831.033,121.662.018c10.611,0,21.222.022,31.833-.02a4.3,4.3,0,0,1,4.09,2.534,3.3,3.3,0,0,1,.359,1.456c.036,2.309.016,4.618.015,6.927,0,.754,0,.754-.732.754q-16.944,0-33.889,0-6.1,0-12.2.011c-3.815.005-7.711-.112-11.351,1.222a11.79,11.79,0,0,0-5.938,4.5,9.453,9.453,0,0,0-1.433,6.024c.418,4.034,3.379,6.945,7.026,8.364a15.037,15.037,0,0,0,2.886.9,28.4,28.4,0,0,0,4.512.464c6.527.049,13.054-.007,19.58.048a4.493,4.493,0,0,1,3.107,1.172,1.808,1.808,0,0,1-.23,2.911,7.3,7.3,0,0,1-2.329.989,9.47,9.47,0,0,1-2.713.2c-8.13.014-16.26,0-24.39.02a1.01,1.01,0,0,0-.687.347c-1.222,1.53-2.422,3.079-3.616,4.632C324.043,217.831,323.03,219.183,321.911,220.659Zm-39.868-26.816c.289.013.45.027.611.027h13.336c.709,0,.8.081.8.785q0,12.678-.016,25.356c0,.509.121.655.625.652q4.865-.03,9.73,0c.485,0,.658-.112.658-.632q-.018-12.706,0-25.413c0-.741-.01-.744.75-.744,3.186,0,6.373,0,9.559-.008.226,0,.612-.012.612-.012s1.148-1.595,1.695-2.3c1.245-1.609,2.5-3.213,3.739-4.825.492-.638,1.078-1.289,1.634-2.033h-1.132q-17.572,0-35.144.013a1.1,1.1,0,0,0-.737.388c-.679.843-1.3,1.733-1.959,2.591C285.255,189.7,283.692,191.713,282.043,193.843Z" transform="translate(-224.858 -173.018)" fill="red"/></g><g transform="translate(230.153 215.781)"><g transform="translate(0.157 20.205)"><path d="M274.86,735.211a5.429,5.429,0,0,1-2.263-1.342l1.28-1.947a4.972,4.972,0,0,0,1.921,1.1,7.24,7.24,0,0,0,2.2.36A3.768,3.768,0,0,0,279.78,733a1.1,1.1,0,0,0,.71-.956.932.932,0,0,0-.386-.772,2.979,2.979,0,0,0-.965-.474q-.579-.175-1.666-.421a22.021,22.021,0,0,1-2.561-.711,4.386,4.386,0,0,1-1.719-1.114,2.8,2.8,0,0,1-.719-2.017,2.936,2.936,0,0,1,.684-1.965,4.145,4.145,0,0,1,1.824-1.21,7.531,7.531,0,0,1,2.526-.4,9.366,9.366,0,0,1,3.123.482,5.373,5.373,0,0,1,2.175,1.342l-1.245,1.965a5.08,5.08,0,0,0-1.886-1.114,6.722,6.722,0,0,0-2.131-.359,3.267,3.267,0,0,0-1.64.359,1.079,1.079,0,0,0-.623.956.948.948,0,0,0,.395.78,2.973,2.973,0,0,0,.974.483q.579.176,1.667.421a19.849,19.849,0,0,1,2.552.693,4.41,4.41,0,0,1,1.71,1.114,2.828,2.828,0,0,1,.719,2.035,2.9,2.9,0,0,1-.71,1.973,4.277,4.277,0,0,1-1.895,1.219,7.982,7.982,0,0,1-2.588.4A10.045,10.045,0,0,1,274.86,735.211Z" transform="translate(-272.474 -722.958)" fill="#6d6e71"/><path d="M406.156,727.624h-3.614v-2.368h10.139v2.368H409.05v9.911h-2.894Z" transform="translate(-387.649 -724.993)" fill="#6d6e71"/><path d="M532.763,725.256h5.754a6.836,6.836,0,0,1,2.85.526,3.729,3.729,0,0,1,1.7,1.438,3.915,3.915,0,0,1,.553,2.07,3.6,3.6,0,0,1-2.438,3.543l2.912,4.7h-3.122l-2.491-4.175h-2.824v4.175h-2.894Zm5.754,5.736a2.566,2.566,0,0,0,1.649-.456,1.519,1.519,0,0,0,.561-1.245,1.474,1.474,0,0,0-.553-1.237,2.673,2.673,0,0,0-1.658-.43h-2.859v3.368Z" transform="translate(-502.96 -724.993)" fill="#6d6e71"/><path d="M676.177,737.185a4.587,4.587,0,0,1-1.991-1.763,5.648,5.648,0,0,1-.781-3.026v-7.14H676.3v7.034a3.185,3.185,0,0,0,.693,2.123,2.588,2.588,0,0,0,3.78.009,3.207,3.207,0,0,0,.684-2.131v-7.034h2.895v7.14a5.651,5.651,0,0,1-.781,3.026,4.588,4.588,0,0,1-1.991,1.763,6.779,6.779,0,0,1-5.4,0Z" transform="translate(-627.498 -724.993)" fill="#6d6e71"/><path d="M816.591,734.851a6.387,6.387,0,0,1-2.307-2.316,6.211,6.211,0,0,1-.851-3.192,6.336,6.336,0,0,1,6.385-6.385,6.226,6.226,0,0,1,2.868.684,6.38,6.38,0,0,1,2.237,1.877l-2.017,1.509a3.659,3.659,0,0,0-3.035-1.614,3.473,3.473,0,0,0-1.894.544,3.87,3.87,0,0,0-1.351,1.447,4.036,4.036,0,0,0,0,3.859,3.866,3.866,0,0,0,1.351,1.447,3.471,3.471,0,0,0,1.894.544,3.679,3.679,0,0,0,3.035-1.631l2.017,1.543a6.479,6.479,0,0,1-2.228,1.859,6.443,6.443,0,0,1-6.1-.175Z" transform="translate(-751.493 -722.958)" fill="#6d6e71"/><path d="M954.47,727.624h-3.614v-2.368H961v2.368h-3.631v9.911H954.47Z" transform="translate(-873.181 -724.993)" fill="#6d6e71"/><path d="M1083.849,737.185a4.586,4.586,0,0,1-1.991-1.763,5.65,5.65,0,0,1-.78-3.026v-7.14h2.894v7.034a3.186,3.186,0,0,0,.693,2.123,2.588,2.588,0,0,0,3.781.009,3.207,3.207,0,0,0,.684-2.131v-7.034h2.895v7.14a5.648,5.648,0,0,1-.781,3.026,4.586,4.586,0,0,1-1.991,1.763,6.779,6.779,0,0,1-5.4,0Z" transform="translate(-988.492 -724.993)" fill="#6d6e71"/><path d="M1224.475,725.256h5.754a6.838,6.838,0,0,1,2.851.526,3.729,3.729,0,0,1,1.7,1.438,3.915,3.915,0,0,1,.553,2.07,3.6,3.6,0,0,1-2.438,3.543l2.912,4.7h-3.122l-2.491-4.175h-2.824v4.175h-2.895Zm5.754,5.736a2.565,2.565,0,0,0,1.649-.456,1.518,1.518,0,0,0,.562-1.245,1.474,1.474,0,0,0-.552-1.237,2.674,2.674,0,0,0-1.658-.43h-2.859v3.368Z" transform="translate(-1115.47 -724.993)" fill="#6d6e71"/><path d="M1361.338,725.256h3.614l4.649,12.279h-2.964l-.895-2.421h-5.192l-.895,2.421h-2.964Zm3.6,7.613-1.789-4.789-1.789,4.789Z" transform="translate(-1232.547 -724.993)" fill="#6d6e71"/><path d="M1506.522,725.256h2.895v9.911h6.7v2.368h-9.6Z" transform="translate(-1365.223 -724.993)" fill="#6d6e71"/></g><g transform="translate(0 37.484)"><path d="M271.1,874.779h3.946v.629h-3.178v1.5h2.717v.628h-2.717v1.5h3.178v.629H271.1Z" transform="translate(-271.1 -874.674)" fill="red"/><path d="M322.034,874.779h.908l2.968,3.884v-3.884h.768v4.889h-.88l-3-3.89v3.89h-.768Z" transform="translate(-316.202 -874.674)" fill="red"/><path d="M379.6,878.6a2.557,2.557,0,0,1-.925-.925,2.532,2.532,0,0,1,0-2.542,2.557,2.557,0,0,1,.925-.925,2.524,2.524,0,0,1,2.41-.07,2.594,2.594,0,0,1,.884.741l-.58.44a2.082,2.082,0,0,0-.639-.569,1.589,1.589,0,0,0-.807-.22,1.7,1.7,0,0,0-.911.262,1.968,1.968,0,0,0-.674.7,1.815,1.815,0,0,0,0,1.844,1.933,1.933,0,0,0,.674.691,1.715,1.715,0,0,0,.911.258,1.576,1.576,0,0,0,.789-.209,2.076,2.076,0,0,0,.629-.545v-.8h-1.355v-.628h2.123v1.635a2.769,2.769,0,0,1-.887.866,2.4,2.4,0,0,1-1.3.349A2.46,2.46,0,0,1,379.6,878.6Z" transform="translate(-366.058 -873.864)" fill="red"/><path d="M436.653,874.779h.768v4.889h-.768Z" transform="translate(-417.697 -874.674)" fill="red"/><path d="M460.442,874.779h.908l2.968,3.884v-3.884h.768v4.889h-.88l-3-3.89v3.89h-.768Z" transform="translate(-438.762 -874.674)" fill="red"/><path d="M518.087,874.779h3.946v.629h-3.178v1.5h2.717v.628h-2.717v1.5h3.178v.629h-3.946Z" transform="translate(-489.807 -874.674)" fill="red"/><path d="M569.022,874.779h3.946v.629H569.79v1.5h2.717v.628H569.79v1.5h3.178v.629h-3.946Z" transform="translate(-534.91 -874.674)" fill="red"/><path d="M619.957,874.779h2.34a2.332,2.332,0,0,1,1.488.405,1.364,1.364,0,0,1,.5,1.125,1.444,1.444,0,0,1-.3.936,1.606,1.606,0,0,1-.9.524l1.334,1.9h-.887l-1.264-1.816h-1.537v1.816h-.768Zm2.34,2.445q1.222,0,1.222-.915a.8.8,0,0,0-.3-.674,1.524,1.524,0,0,0-.926-.227h-1.571v1.816Z" transform="translate(-580.013 -874.674)" fill="red"/><path d="M674.125,874.779h.768v4.889h-.768Z" transform="translate(-627.979 -874.674)" fill="red"/><path d="M697.915,874.779h.908l2.968,3.884v-3.884h.768v4.889h-.88l-3-3.89v3.89h-.768Z" transform="translate(-649.044 -874.674)" fill="red"/><path d="M755.486,878.6a2.554,2.554,0,0,1-.925-.925,2.531,2.531,0,0,1,0-2.542,2.554,2.554,0,0,1,.925-.925,2.524,2.524,0,0,1,2.41-.07,2.594,2.594,0,0,1,.883.741l-.58.44a2.081,2.081,0,0,0-.639-.569,1.589,1.589,0,0,0-.807-.22,1.7,1.7,0,0,0-.912.262,1.965,1.965,0,0,0-.674.7,1.816,1.816,0,0,0,0,1.844,1.93,1.93,0,0,0,.674.691,1.715,1.715,0,0,0,.912.258,1.575,1.575,0,0,0,.789-.209,2.074,2.074,0,0,0,.629-.545v-.8h-1.355v-.628h2.123v1.635a2.77,2.77,0,0,1-.887.866,2.4,2.4,0,0,1-1.3.349A2.46,2.46,0,0,1,755.486,878.6Z" transform="translate(-698.901 -873.864)" fill="red"/></g><g transform="translate(64.713 37.551)"><path d="M838.165,874.446h1.062l1.9,4.889H840.3l-.44-1.117h-2.326l-.44,1.117h-.824Zm1.446,3.143-.915-2.326-.915,2.326Z" transform="translate(-836.272 -874.446)" fill="red"/><path d="M893.429,874.446h.908l2.969,3.883v-3.883h.768v4.889h-.88l-3-3.89v3.89h-.768Z" transform="translate(-886.885 -874.446)" fill="red"/><path d="M953.026,874.446h1.655a3.131,3.131,0,0,1,1.4.3,2.205,2.205,0,0,1,.939.856,2.641,2.641,0,0,1,0,2.563,2.25,2.25,0,0,1-.939.863,3.069,3.069,0,0,1-1.4.307h-1.655Zm1.655,4.26a2.04,2.04,0,0,0,1.02-.244,1.666,1.666,0,0,0,.66-.66,1.883,1.883,0,0,0,.227-.919,1.863,1.863,0,0,0-.227-.915,1.652,1.652,0,0,0-.66-.653,2.065,2.065,0,0,0-1.02-.241h-.887v3.632Z" transform="translate(-939.657 -874.446)" fill="red"/></g><g transform="translate(139.858)"><path d="M1493.925,547.1h-1.366v-.612h3.372v.612h-1.366v4.149h-.639Z" transform="translate(-1492.559 -546.492)" fill="#fff"/><path d="M1527.841,546.492h.756l1.6,3.673,1.622-3.673h.756v4.761h-.639v-3.469l-1.419,3.115h-.645l-1.395-3.1v3.455h-.639Z" transform="translate(-1523.801 -546.492)" fill="#fff"/></g><g transform="translate(86.74 37.51)"><path d="M1029.915,878.821a2.554,2.554,0,0,1-.925-.925,2.532,2.532,0,0,1,0-2.542,2.558,2.558,0,0,1,.925-.925,2.531,2.531,0,0,1,2.413-.07,2.579,2.579,0,0,1,.887.74l-.587.44a2.087,2.087,0,0,0-.639-.569,1.577,1.577,0,0,0-.8-.22,1.715,1.715,0,0,0-.915.262,1.955,1.955,0,0,0-.678.695,1.816,1.816,0,0,0,0,1.844,1.928,1.928,0,0,0,.678.692,1.733,1.733,0,0,0,.915.258,1.575,1.575,0,0,0,.8-.22,2.088,2.088,0,0,0,.639-.569l.587.447a2.543,2.543,0,0,1-.887.737,2.544,2.544,0,0,1-2.413-.074Z" transform="translate(-1028.647 -874.086)" fill="red"/><path d="M1083.107,878.821a2.552,2.552,0,0,1-.925-.925,2.531,2.531,0,0,1,0-2.542,2.556,2.556,0,0,1,.925-.925,2.546,2.546,0,0,1,2.549,0,2.532,2.532,0,0,1,.922.925,2.554,2.554,0,0,1,0,2.542,2.528,2.528,0,0,1-.922.925,2.543,2.543,0,0,1-2.549,0Zm2.186-.579a1.939,1.939,0,0,0,.674-.692,1.816,1.816,0,0,0,0-1.844,1.966,1.966,0,0,0-.674-.695,1.7,1.7,0,0,0-.912-.262,1.717,1.717,0,0,0-.915.262,1.955,1.955,0,0,0-.677.695,1.814,1.814,0,0,0,0,1.844,1.928,1.928,0,0,0,.677.692,1.735,1.735,0,0,0,.915.258A1.717,1.717,0,0,0,1085.293,878.242Z" transform="translate(-1075.749 -874.086)" fill="red"/><path d="M1141.923,875h.908l2.969,3.883V875h.768v4.889h-.88l-3-3.89v3.89h-.768Z" transform="translate(-1128.953 -874.896)" fill="red"/><path d="M1198.7,878.979a2.051,2.051,0,0,1-.9-.52l.391-.608a1.715,1.715,0,0,0,.8.482,3.423,3.423,0,0,0,1.048.168,2.171,2.171,0,0,0,.646-.094,1.252,1.252,0,0,0,.486-.262.511.511,0,0,0,.181-.384.494.494,0,0,0-.2-.412,1.5,1.5,0,0,0-.5-.241q-.3-.087-.824-.185a10.314,10.314,0,0,1-1.083-.255,1.773,1.773,0,0,1-.713-.409,1,1,0,0,1-.293-.761,1.139,1.139,0,0,1,.28-.779,1.686,1.686,0,0,1,.733-.475,3.015,3.015,0,0,1,.992-.157,3.945,3.945,0,0,1,1.257.185,2.058,2.058,0,0,1,.866.52l-.384.594a1.722,1.722,0,0,0-.768-.475,3.21,3.21,0,0,0-1.006-.161,1.907,1.907,0,0,0-.9.2.588.588,0,0,0-.366.524.5.5,0,0,0,.2.416,1.445,1.445,0,0,0,.5.245q.3.088.821.185a10.277,10.277,0,0,1,1.086.266,1.789,1.789,0,0,1,.708.416,1.013,1.013,0,0,1,.293.765,1.121,1.121,0,0,1-.286.779,1.71,1.71,0,0,1-.754.471,3.209,3.209,0,0,1-1.006.154A4.289,4.289,0,0,1,1198.7,878.979Z" transform="translate(-1178.376 -874.086)" fill="red"/><path d="M1251.707,879.737a1.872,1.872,0,0,1-.782-.709,2.139,2.139,0,0,1-.3-1.128V875h.768v2.857a1.44,1.44,0,0,0,.188.737,1.316,1.316,0,0,0,.514.5,1.5,1.5,0,0,0,1.421,0,1.333,1.333,0,0,0,.51-.5,1.432,1.432,0,0,0,.189-.74V875h.768v2.9a2.139,2.139,0,0,1-.3,1.128,1.866,1.866,0,0,1-.782.709,2.65,2.65,0,0,1-2.193,0Z" transform="translate(-1225.208 -874.896)" fill="red"/><path d="M1305.768,875h.769v4.26h2.885v.629h-3.653Z" transform="translate(-1274.037 -874.896)" fill="red"/><path d="M1346.023,875.63h-1.641V875h4.051v.629h-1.641v4.261h-.769Z" transform="translate(-1308.23 -874.896)" fill="red"/><path d="M1387.754,875h1.062l1.9,4.889h-.824l-.44-1.117h-2.326l-.44,1.117h-.824Zm1.446,3.143-.915-2.326-.915,2.326Z" transform="translate(-1344.96 -874.896)" fill="red"/><path d="M1441.065,875h.908l2.969,3.883V875h.768v4.889h-.88l-3-3.89v3.89h-.768Z" transform="translate(-1393.843 -874.896)" fill="red"/><path d="M1498.637,878.821a2.551,2.551,0,0,1-.925-.925,2.53,2.53,0,0,1,0-2.542,2.555,2.555,0,0,1,.925-.925,2.531,2.531,0,0,1,2.413-.07,2.583,2.583,0,0,1,.887.74l-.587.44a2.088,2.088,0,0,0-.639-.569,1.579,1.579,0,0,0-.8-.22,1.713,1.713,0,0,0-.915.262,1.952,1.952,0,0,0-.678.695,1.817,1.817,0,0,0,0,1.844,1.926,1.926,0,0,0,.678.692,1.731,1.731,0,0,0,.915.258,1.577,1.577,0,0,0,.8-.22,2.09,2.09,0,0,0,.639-.569l.587.447a2.548,2.548,0,0,1-.887.737,2.544,2.544,0,0,1-2.413-.074Z" transform="translate(-1443.7 -874.086)" fill="red"/><path d="M1550.829,877.725,1548.852,875h.957l1.39,1.991,1.383-1.991h.957l-1.942,2.682v2.207h-.769Z" transform="translate(-1489.288 -874.896)" fill="red"/></g></g></g></svg>